<svg xmlns="http://www.w3.org/2000/svg" version="1.1" viewBox="0 0 1920 1080">
<path transform="translate(0)" d="m0 0h1920v1080h-1920z" fill="#F1E8F1"/>
<path transform="translate(0)" d="m0 0h734l-2 54v19l1 31 3 39 5 40 7 39 9 38 8 29 13 40 16 41 16 35 14 28 13 23 10 17 14 22 13 19 13 18 10 13 11 14 11 13 12 14 12 13 14 15 18 18 8 7 15 14 10 8 1 4 4-3 2 5 13 11 9 7v5l-4 5 1 3 18 13 9 7-1 5 2 5-4 6v2l23 15 8 5v5l5 2 21 12-1 12 4 4 22 12 2 4-5 8 1 4 39 19 9 4-6 15-4-1-1 5-3 5 1 6 11 5 5 3 1 3-6 12-9 16-12 23-11 24-13 33-12 37-10 40-2 12h-1115z" fill="#EAF9FA"/>
<path transform="translate(1077)" d="m0 0h843v252l-5 8-11 21-12 20-10 15-8 11-6 8-3 7h2l1 5-9 11-12 13-8 10 4 1 1 8 5-4 3 3 5 2-1 5-8 8-7 8-6 5v3l1 5-5 4 1 5-8 6-9 7-10 8-6 4-17 12-27 16-26 14-25 11-23 9-24 8-6-1-1-2h4l1-2 15-4 12-5 13-5 19-8 21-10 3-1v-4l-6-1-30 14-29 11-28 9h-3v2l-13 4-28 6-25 4-20 2-64-1-34-3-7-1h-10l-3 2v2l12 3 26 3 14 1 46 1-1 2h-2v2h-39l-27-2-35-5-34-7-25-7-32-11-9-4-1-3 1-2-6-2-1-1v-5l-16-8-13-7-1-4 5-4 1-4 7 2-2-7 2-4-17-9-11-7-9-6 1-9-5-2-17-12-6-5-10-8-15-13-9-8-8-7-8-9-7-8-10-11-8-10-12-16-12-17-12-20-9-16-8-16-8-17-10-26-10-31-7-31-5-31-3-34v-41l2-26z" fill="#D2CEED"/>
<path transform="translate(1379,519)" d="m0 0 10 2 14 4 1 5-5 1-12-3-5-2-6-1z" fill="#F2E9F2"/>
<path transform="translate(1787,454)" d="m0 0 5 1 1 3-13 9-8 5-4-1-1-3 11-8z" fill="#F2E9F2"/>
</svg>