<svg xmlns="http://www.w3.org/2000/svg" version="1.1" viewBox="0 0 1131 1192">
<path transform="translate(0)" d="m0 0h1131v1192h-1131z" fill="#D55F74"/>
<path transform="translate(0)" d="m0 0h1131v1192h-111v-236h-305l-7-1-1-7 1-1v-11l-4 1h-54l5-5 5-7 2-7v-16l-4-20-4-15-2-4 2-7 2-13 3-13-1-4-6-3-5-13-7-9-5-5-8-9-6-13-4-19-2-26-3-17-3-10-6-12-9-9-11-5-12-1h-10l-9 1-13 6-5 3-3 3h-2l-2 4-5 8-4 15-1 7-1 31-2 16-4 11-8 9-8 7-9 10-6 12h-2l-1 6-3 2v9l5 30-7 27-2 16 1 12 3 8 5 5 2 3h-10l-4-2-8-22-1-1v-21l5-1 1-2-20-1v3l6 1 1 1v19l-7 18-3 8-13 1-2 2-2 8 2 1v5l132 1v1l-143 1v-304h304v303h302v-606l-607 1-299-1v304l-1 539h-113z" fill="#E4D6CC"/>
<path transform="translate(114,349)" d="m0 0h906v606h-302v-303h-361l3-2 7-4 6-7 2-7v-18l-3-18-5-21-10-30-3-7-1-15-4-10-9-10-5-6-5-5-5-9-4-13-1-4-1-40-2-16-6-16-7-10-11-7-5-2-9-2h-24l-14 5-10 7-6 7-7 14-3 9-2 9-1 25-3 2 1 3-7 10-3 5-7 1-9 10-7-1-3 5-2 2h-5l-3 2-5-1-4 8-2 13-2 28-3 8-5 22-2 16v20l3 14 6 9 8 5h14l8-2 10-7h2l2-4 7-9 3-3 2 15 1 15 2 12 2 1 14 1h81l6-1v-8l5 1 15 8 8 2v1h-226z" fill="#50378E"/>
<path transform="translate(561,674)" d="m0 0h10l12 1 12 6 9 9 7 14 4 18 2 22 2 17 4 15 7 14 7 7v2l4 2 7 9 4 10v3l6 2 2 6-3 12-2 13-2 8 2 3 7 28 1 7v16l-3 9-6 7-3 2h57l1 11-1 3 1 4 6 1 305 1v236h-605v-237l9-1v-6h-2l2-9v-3l16-1 7-20 2-5v-19l-6-2v-3h21l-2 4h-5l1 21 5 12 4 11 4 1h8l-5-4-4-7-2-11 1-15 6-26 2-8-5-29v-9l4-2 1-6h2l2-6 6-10 13-13 7-6 5-10 2-10 1-10 1-31 3-16 4-10 6-8 7-6 15-6 1-1z" fill="#D55E74"/>
<path transform="translate(896,485)" d="m0 0h15l16 4 12 6 10 9 8 11 9 16 12 25 8 20 6 18 2 10v21l-4 16-5 10 35 1v303h-302v-303l39-1-7-11-6-12-3-10v-20l5-21 6-16 8-16 7-12 12-14 14-13 3-1 5 3 1 17v11l-8 16-14 26-3 6-2 8v9l3 10 10 3 11-1 6-3h2v-2l4-4 8-15 13-29 9-17 4 2v2l4 2 12 12 3 2-2 4-2 3v6l5 1 2-1-1 8 2 2h4l5-5-2 4-2 5h8l1 3h6 4l10 11 5 6 8-2 5-1 22 22 3 2v2l3 1h11l8-4 5-7 2-7v-6l-10-9-44-44-8-6-10-4-15-2-2-1v-2l-4-2-14-11-15-12 2-20 2-2 8 19 5 8 5 1 6-9 7-15 1-11 3-2z" fill="#CD3A2C"/>
<path transform="translate(719,956)" d="m0 0h301v236h-302v-235z" fill="#5674FA"/>
<path transform="translate(114,955)" d="m0 0h299v237h-299z" fill="#50368E"/>
<path transform="translate(717,349)" d="m0 0h303v303h-36l5-11 4-16v-21l-4-17-10-27-7-15-11-22-7-11-8-10-8-7-11-5-16-4h-15l-8 2v11l-9 19-5 6-5-1-4-5-8-18-2-3-2 20 16 13 9 7 7 5v2l17 2 12 5 15 14 42 42 4 3-1 10-4 8-8 6-3 1h-11l-10-9-18-18-5 1-8 2-10-11-6-7-9 1-1-4-6 1-2-1 1-5 1-2-3 4-5-1-2-2v-5-1l-5-1-1-1v-6l4-5v-2l-8-7-12-12h-2l-11 22-13 29-7 12-3 1v2l-8 4-11 1-7-2-4-4-3-8v-9l4-13 13-23 9-17 1-3v-11l-1-17-5-2-11 9-8 8-10 13-7 12-10 23-6 21-1 6v20l5 15 7 12 4 6-1 1h-40z" fill="#5674FB"/>
<path transform="translate(414,652)" d="m0 0h304v304l-10-1-1-7 1-1v-11l-4 1h-54l5-5 5-7 2-7v-16l-4-20-4-15-2-4 2-7 2-13 3-13-1-4-6-3-5-13-7-9-5-5-8-9-6-13-4-19-2-26-3-17-3-10-6-12-9-9-11-5-12-1h-10l-9 1-13 6-5 3-3 3h-2l-2 4-5 8-4 15-1 7-1 31-2 16-4 11-8 9-8 7-9 10-6 12h-2l-1 6-3 2v9l5 30-7 27-2 16 1 12 3 8 5 5 2 3h-10l-4-2-8-22-1-1v-21l5-1 1-2-20-1v3l6 1 1 1v19l-7 18-3 8-13 1-2 2-2 8 2 1v5l132 1v1l-143 1z" fill="#E5D6CA"/>
<path transform="translate(114,349)" d="m0 0h301v303h-58l3-2 7-4 6-7 2-7v-18l-3-18-5-21-10-30-3-7-1-15-4-10-9-10-5-6-5-5-5-9-4-13-1-4-1-40-2-16-6-16-7-10-11-7-5-2-9-2h-24l-14 5-10 7-6 7-7 14-3 9-2 9-1 25-3 2 1 3-7 10-3 5-7 1-9 10-7-1-3 5-2 2h-5l-3 2-5-1-4 8-2 13-2 28-3 8-5 22-2 16v20l3 14 6 9 8 5h14l8-2 10-7h2l2-4 7-9 3-3 2 15 1 15 2 12 2 1 14 1h81l6-1v-8l5 1 15 8 8 2v1h-226z" fill="#5674FB"/>
<path transform="translate(255,372)" d="m0 0h24l11 3 10 5 6 5 8 13 4 12 2 16 1 40 4 15 4 8 4 5v2l3 1 14 16 4 10 1 15 7 18 8 26 4 18 2 14v18l-3 9-7 7-9 4h-17l-10-3-15-8-3-1v8l-6 2h-81l-14-1-3-2-2-12-2-25-1-4-7 10-4 5-14 9-6 1h-14l-8-5-6-8-3-10-1-6v-20l3-22 6-23 1-2 2-27 3-16 4-6 6 1 2-2h5l4-6 1-1h5 3l7-8 3-2h5l6-10 4-6-2-1 4-2v-25l4-15 5-12 7-10 8-7 12-6z" fill="#307457"/>
<path transform="translate(561,674)" d="m0 0h10l12 1 12 6 9 9 7 14 4 18 2 22 2 17 4 15 7 14 7 7v2l4 2 7 9 4 10v3l6 2 2 6-3 12-2 13-2 8 2 3 7 28 1 7v16l-3 9-6 7-3 2h57v2l-6 1h-61l-1-1h-122v-1h-27l-1 1h-11l-11-1v-2h11l-5-4-4-7-2-11 1-15 6-26 2-8-5-29v-9l4-2 1-6h2l2-6 6-10 13-13 7-6 5-10 2-10 1-10 1-31 3-16 4-10 6-8 7-6 15-6 1-1z" fill="#EED2B9"/>
<path transform="translate(896,485)" d="m0 0h15l16 4 12 6 10 9 8 11 9 16 12 25 8 20 6 18 2 10v21l-4 16-5 10 35 1v1h-302v-1l39-1-7-11-6-12-3-10v-20l5-21 6-16 8-16 7-12 12-14 14-13 3-1 5 3 1 17v11l-8 16-14 26-3 6-2 8v9l3 10 10 3 11-1 6-3h2v-2l4-4 8-15 13-29 9-17 4 2v2l4 2 12 12 3 2-2 4-2 3v6l5 1 2-1-1 8 2 2h4l5-5-2 4-2 5h8l1 3h6 4l10 11 5 6 8-2 5-1 22 22 3 2v2l3 1h11l8-4 5-7 2-7v-6l-10-9-44-44-8-6-10-4-15-2-2-1v-2l-4-2-14-11-15-12 2-20 2-2 8 19 5 8 5 1 6-9 7-15 1-11 3-2z" fill="#CF5055"/>
<path transform="translate(754,686)" d="m0 0h124v22h21l1 1v70l-62 1-8 4-1 1-61 1v2l57 1-1 18-56 1v2l56 1v18l-56 1v2l56 1v18l-56 1v2l56 1v18l-56 1v2l56 1v21h-70z" fill="#EDD1B8"/>
<path transform="translate(173,790)" d="m0 0 3 1-1 14 9 2 2 2 3 12 133 1 6 3 6 7 9 30 14 50 3 10-1 4h-167l-15-1-4-5-3-3-3-9-2-11-2-4-2-8-3-13-4-10-3-12-2-5-3-14-4-16 1-4 2-3h2v-2l5-1h8l1-14z" fill="#F6DC9B"/>
<path transform="translate(255,372)" d="m0 0h24l11 3 10 5 6 5 8 13 4 12 2 16 1 40 4 15 4 8 4 5v2l3 1 14 16 4 10v12l-4-4-7-11-5-6-2-1 2 8v27l-4 16-4 8-7 5-9 1-4-4-1-3h-2l-4 4-5-1-2-3v-16l4-27v-12l-2-11-2-8-2 1-3 5-8 7-13 5h-17l-11-4-4-2v-2l-4-2-5-6-2-4 7-2-1-2-9-5-6-9-4-10v-4l-4 4-8 12-3 4 1 9-3 6-3 18h-2l-2 5-12 16-2 3h-13l-10-3-3-2 2-27 3-16 4-6 6 1 2-2h5l4-6 1-1h5 3l7-8 3-2h5l6-10 4-6-2-1 4-2v-25l4-15 5-12 7-10 8-7 12-6z" fill="#B65651"/>
<path transform="translate(510,1085)" d="m0 0 1 3-1 5h107v3l6-1 4 5 9 19 2 2h7l2-6 6-14h1l1 13-1 19h5l1 1h29l5 5v53h-200l-1-19-1-7-1-3-17-1-9 2h-11l-8-5-4-7v-11l15 2 10-2 14-8 1-3h-17v-1h18l1 1 17-3h7l7 3v-3h4v-2h2l1-13 4-10-6-2-11-5-2 6-7 14-1 1-18 1-5-1v-1h9v-9l16-8z" fill="#D45D73"/>
<path transform="translate(844,976)" d="m0 0 11 6v2l6 2 18 10v2l5 1 24 14 15 9 11 6 25 14 13 8 23 13 6 4v112l-5-2-20-11-13-8-10-6-11-6-24-14-14-8-24-14-21-12-15-9z" fill="#9BDADA"/>
<path transform="translate(827,804)" d="m0 0h157v97l-3 8-6 5-2 1h-133l-6-2-5-5-2-6z" fill="#C0DDF0"/>
<path transform="translate(511,983)" d="m0 0h169v58l-4-2h-10l-4 4-1 2 4 1-3 1 1 15 4 2 1 5-1 1-10 2-6 3-7 13v5l-10 1-3 1-1-7-4-4-1 1-1 2-5-1v6l-1 1h-108l1-8 5-7h2l2-4 3-4 1-6 2-2 4-2-1-4-1-2-4-1-1 2-2 1-2 5-7 2-1 2-1-1v-80z" fill="#F5F4F5"/>
<path transform="translate(252,1027)" d="m0 0h8l6 2 9-1 8-1 8 3 3 8 1 6v15l4-1 1-10 4-1 5 5 1 7-4 10-5 4-4 1-3-1-2 5-1 2v13l3 8 1 1 14 2 8 2 10 4 9 5-1 8-3 12-2 6-3 21-2 30h-147l1-13 4-5 11-3h2l-3-24-5-24-3-9 1-4 8-5 12-4 26-1 4-7 2-11-1-6-2-5-7-3-4-6v-13l3-5 5-1 2 1v13h4v-8l5-17 3-3z" fill="#CA8B5F"/>
<path transform="translate(561,674)" d="m0 0h10l12 1 12 6 9 9 7 14 4 18 2 22 2 17 4 15 7 14 7 7v2l4 2 7 9 5 13v2h-175l1-9 6-11 9-10 13-12 5-10 2-10 1-10 1-31 3-16 4-10 6-8 7-6 15-6 1-1z" fill="#B55651"/>
<path transform="translate(858,424)" d="m0 0 6 4 5 4 5 2-2-4 5 2 8 4 8 1 4 8 2 1 2-5 6 2 3 5-2 7-3 2-7 1-1 6-5 7-5 4 1 12 2 1h-2v11l-9 19-5 6-5-1-4-5-8-18-2-3-2 20 16 13 9 7 7 5v2l17 2 12 5 15 14 42 42 4 3-1 10-4 8-8 6-3 1h-11l-10-9-18-18-5 1-8 2-10-11-6-7-9 1-1-4-6 1-2-1 1-5 1-2-3 4-5-1-2-2v-5-1l-5-1-1-1v-6l4-5v-2l-8-7-12-12h-2l-11 22-13 29-7 12-3 1v2l-8 4-11 1-7-2-4-4-3-8v-9l4-13 13-23 9-17 1-3v-11l-1-17-15-8 1-7 6-9 7-6 5 1 10 8 4-1h11l1 1h7l3-1 15-1 1-3h12l9-2 4-2h-18l-10-5-6-5-3-6v-5l-7-1-3-3v-8l5-4 3 1 2 2 6-7 4-7z" fill="#DF8C86"/>
<path transform="translate(836,1096)" d="m0 0h5l17 10 16 9-1 5 16 10 23 13 24 14 21 12 11 1 18 10 17 10-1 2h-213l-23-13-15-9-11-6-8-5 1-4 24-14 14-8 17-10 12-7 5-1v-2l18-10 11-6z" fill="#8FC8D1"/>
<path transform="translate(751,682)" d="m0 0h131l5 6 2 1 36 1v6h20v83h27l8 3 6 8 1 3v112l-3 6-7 6-2 1h-139l-8-5-4-7v-4h-73zm3 4v212h70v-21l-56-1v-2l56-1v-18l-56-1v-2l56-1v-18l-56-1v-2l56-1v-18l-56-1v-2l56-1 1-18-57-1v-2l61-1 6-4 3-1 62-1v-70l-1-1h-21v-22zm73 118v98l4 9 4 3 5 1h133l6-4 4-6 1-4v-97z" fill="#473838"/>
<path transform="translate(896,485)" d="m0 0h15l16 4 12 6 10 9 8 11 9 16 12 25 8 20 6 18 2 10v21l-4 16-5 10-1 1h-50l-2-13-5-21 1-3 14 14 3 2v2l3 1h11l8-4 5-7 2-7v-6l-10-9-44-44-8-6-10-4-15-2-2-1v-2l-4-2-14-11-15-12 2-20 2-2 8 19 5 8 5 1 6-9 7-15 1-11 3-2z" fill="#364850"/>
<path transform="translate(275,766)" d="m0 0h4l3 12 3 14v5l94 1 5 3 3 5-1 11-10 44-7 30-8 36h-178l-4-2h180l-2-10-14-49-9-31-3-6-6-5-3-1-133-1-1-5 3-3 2-9 5-6 2-1 47-1v-9l-2-11 1-5z" fill="#B19276"/>
<path transform="translate(234,1107)" d="m0 0 5 4 10 14 2 1 12 1h11l13-15 4-5h2l-4 16-2 7 22 1 17 2 1 1-1 21-2 23-6 2-3 12h-106l-1-4v-3l1-5-2-1 2-4 2-5h-12l3-38 1-8 1-1h11l23 2-4-13z" fill="#27212B"/>
<path transform="translate(232,533)" d="m0 0h2l1 2 3 1v-2l-2-1h24l1 2 3 1v-2l-2-1h5l2 1v-1h5l4 2 1-2h4v37l6 1 11 7 4 6 3 8-1 6-11 20-4-1-9-3v12h-63l-1-1-1-91 4 1 3 1v-2l7 1z" fill="#EDD1B8"/>
<path transform="translate(836,1096)" d="m0 0h5l17 10 16 9-1 5 16 10 23 13 24 14 21 12 11 1 18 10 17 10-1 2h-24l-18-10-24-14-17-10-26-15-21-12-24-14-15-9 2-2 14 8-9-6-4-2-5 1-16 9-24 14-10 6 4 3 4 2 8-5-6-3v-2l5 1 7 3 6-2-1 3-2 2 4 2v3l-5-2-3-2-4 1-6 2 3 3 6 3h3v2l10 5v2l5 2 3 2 5 1 2 3 12 6 9 6 25 14v1h-86l-23-13-15-9-11-6-8-5 1-4 24-14 14-8 17-10 12-7 5-1v-2l18-10 11-6z" fill="#EDAF99"/>
<path transform="translate(727,224)" d="m0 0h45l10 3 8 6 5 6 3 9v14l-3 9-6 8-11 7 9 11 11 13 9 11 6 8h-31l-13-17-14-18-4-5-1 40h-23z" fill="#3C306F"/>
<path transform="translate(336,513)" d="m0 0 4 2 9 12 6 11 7 18 8 26 4 18 2 14v18l-3 9-7 7-9 4h-17l-10-3-15-8v-2h-5l-16-11-2-2 1-6 12-22 2-3 7 1 2 1 1-19 9-4 5-5 4-11 2-10v-27z" fill="#2F7458"/>
<path transform="translate(850,516)" d="m0 0 7 4 16 13 12 9v2l17 2 12 5 15 14 42 42 4 3-1 10-4 8-8 6-3 1h-11l-10-9-18-18-5 1-8 2-10-11-6-7-9 1-1-4-6 1-2-1 1-5 1-2-3 4-5-1-2-2v-5-1l-5-1-1-1v-6l4-5v-2l-8-7-13-13 1-5 5-15z" fill="#DD8A84"/>
<path transform="translate(443,886)" d="m0 0h21l-2 4h-5l1 21 10 24v2h22l4-1h27v1h119l1 1h67l1 9-1 3 1 4 6 1v1h-300v-1l9-1v-6h-2l2-9v-3l16-1 7-20 2-5v-19l-6-2z" fill="#DE9875"/>
<path transform="translate(436,224)" d="m0 0h22l4 8 30 74 9 23h-26l-3-6-5-14h-40l-7 20h-26l3-9 12-30 19-47z" fill="#3C306F"/>
<path transform="translate(795,505)" d="m0 0 6 3 1 17v11l-8 16-14 26-3 6-2 8v9l3 10 10 3 11-1 9-4v9l-3 34h-46l-8-10-7-14-3-10v-20l5-21 6-16 8-16 7-12 12-14 14-13z" fill="#364850"/>
<path transform="translate(192,519)" d="m0 0 4 1 6 12 2 12 1 18v41l2 16-2 1-2-14-7 10-4 5-14 9-6 1h-14l-8-5-6-8-3-10-1-6v-20l3-22 6-23 4-1 10 3h13l6-9 7-9z" fill="#2F7457"/>
<path transform="translate(189,822)" d="m0 0h133l6 3 6 7 9 30 14 50 3 10-1 4h-136l-7-1v-1l35-4 13-2h5l-2-2h-37l-6-3-5-6-9-26v-5l4-1h54l3 10-1 1h-8v12l13 1 1 1v11l-4 5 16-4 9-3 14-7h2v-2h2l7-14 4-14v-21l-3-15-4-10v-3h-130z" fill="#EAD29B"/>
<path transform="translate(844,964)" d="m0 0 5 1-4 2 13 8 18 10 19 11 24 14 13 8 11 6 16 9 14 8 17 10 13 8 3 4 1 3v120l2-1v-122l-3-5-26-15-11-6-17-10-13-8 2-1 28 16 24 14 14 8 4 6 1 3v119l-8 8-2-1-9-6-16-9-9-5-11-1-28-16-26-15-19-11-11-7v-4l1-2-6-2-24-14-3-2-7 1-11 6-16 9-2-1 13-8 14-8 7-1-2-6v-120l2-3zm0 12v113l19 11 17 10 19 11 21 12 24 14 17 10 14 8 17 10 7 4h2v-112l-10-6-26-15-17-10-22-13-8-4-17-10-19-11h-3v-2l-22-12h-2v-2z" fill="#263F43"/>
<path transform="translate(840,807)" d="m0 0h53v97l-1 1h-52z" fill="#E89E78"/>
<path transform="translate(867,370)" d="m0 0 7 1 21 9 29 14 5 4-2 5-15 16-6 6h-2l1 2v11l-2 4h-2l-2 4-3-1-3-7-11-2-9-5 1 3-6-2-9-7-7 9-3 5-5 6-5-4-1-2v-11l-26-13-1-4 4-6 13-11 16-12 20-11z" fill="#354850"/>
<path transform="translate(269,976)" d="m0 0h5l12 8 19 12 7 5v2l5 2 9 6 7 3 3 3 2 1v3l-6 2v2l-28 10h-2l-2 18-1 5-4 1-2-21-2-7-8-3-11 2-9-1-3-1h-8l-8 2-3 11-3 16h-4v-13l-2-1h2l-1-14-5-1-4-2h-5v12l1 16v16h-7v-25l1-15h2v-29l13-5 19-10z" fill="#28653B"/>
<path transform="translate(897,222)" d="m0 0h17l16 4 9 5-2 6-7 14-5-1-13-4-13 1-11 4-7 6-6 12v13l4 11 3 3v2l4 2 9 5 4 1h16l11-4 3-1 10 19v2l-9 5-12 3-5 1h-15l-15-4-11-6-10-9-6-7-7-14-1-7v-15l3-11 5-10 8-10 11-8 13-6z" fill="#3D316F"/>
<path transform="translate(296,224)" d="m0 0h60v21h-36v21h35v20l-1 1h-34v21h36v21h-60z" fill="#3D306E"/>
<path transform="translate(653,224)" d="m0 0h60v21h-36v21h34v21h-34v21h36v21h-60z" fill="#3C306E"/>
<path transform="translate(980,222)" d="m0 0h15l15 4 9 5-1 5-7 13-3 1-13-5h-12l-5 3-1 7 5 5 26 13 9 8 4 6 1 3v16l-2 6-6 9-10 6-9 3h-24l-13-4-11-6-3-2 1-4 10-17 11 6 6 3 7 2 10-1 5-3 1-1v-8l-5-5-16-8-10-6-7-7-4-10v-11l3-9 6-8 9-6z" fill="#3D306F"/>
<path transform="translate(664,1044)" d="m0 0h12l1 7 5 1v9l1 7 12 3 6 3 3 6 1 7v19l4 39v5l-7 5 1-4-1-1-2 3-1-7-1-1v-6h2l-4-7-1 1h-10v2h-26v-2h-5v-25l-1-4-8 17-7 1-4-5-9-19-4-2h-4l2-10 6-1-1-3h2l5 6v7l3-2h10l-1-5 7-13 4-3 6-2 7-1-1-5-4-4v-13l2-2z" fill="#F4B73D"/>
<path transform="translate(224,224)" d="m0 0h61v21h-37v21h34v20l-1 1h-33v42h-24z" fill="#3D306E"/>
<path transform="translate(505,224)" d="m0 0h60v21h-36v21h34v20l-1 1h-33v42h-24z" fill="#3D306E"/>
<path transform="translate(252,1027)" d="m0 0h8l6 2 9-1 8-1 8 3 3 8 1 6v15l4-1 1-10 4-1 5 5 1 7-4 10-5 4-4 1-3-1-2 5-1 2-1 10h-1l-1-6-13 8-6 2-10-1-10-4-2-4-1-3-1 3-2-3-1-2-4-2-3-7-7-3-4-6v-13l3-5 5-1 2 1v13h4v-8l5-17 3-3z" fill="#C7865E"/>
<path transform="translate(858,424)" d="m0 0 6 4 5 4 5 2-2-4 5 2 8 4 8 1 4 8 2 1 2-5 6 2 3 5-2 7-3 2-7 1-1 6-5 7-5 4 1 12 2 1h-2v11l-9 19-5 6-5-1-4-5-8-18-2-3-3 20-2-3v-12l-1-4h-2v8l-2-1v-9l-5-5v9h-1l-2-13 3-1 15-1 1-3h12l9-2 4-2h-18l-10-5-6-5-3-6v-5l-7-1-3-3v-8l5-4 3 1 2 2 6-7 4-7z" fill="#DC8983"/>
<path transform="translate(570,224)" d="m0 0h74v21h-25v84h-24v-84h-25z" fill="#3C306E"/>
<path transform="translate(528,793)" d="m0 0h7l6 9 6 4 10 4h18l14-7 7-8 1-2 13 1 15 6 7 4v2l4 2 4 5 4 9-1 3h-154l-1-5 7-11 8-7 10-5 9-3z" fill="#317659"/>
<path transform="translate(848,549)" d="m0 0 7 6 9 8-2 4-2 3v6l5 1 2-1-1 8 2 2h4l5-5-2 4-2 5h8l1 3 5 1 4 39 2 19h-47l-2-16-1-22 2-40 2-21z" fill="#36484F"/>
<path transform="translate(113,224)" d="m0 0h24v84h36v21h-60z" fill="#3C306F"/>
<path transform="translate(522,1053)" d="m0 0 6 1 3 3-1 4-5 3-2 7-5 7h-2l-2 4-2 3h-2l-2 5-7 9-14 7h-2v9l-4 1 18-1 10-20 5 1 12 6-1 6-2 4v7l-2 6h-2v2h-4v3l-5-1-2-1-13 1-12 2-1-1-1 4-14 8-13 2-10-2-3-1-1-6 4-17 6-17 4 1 6 4 4 1h11l7-3 2-4-1-11 10-3 1-4 3-1 7-10 5-4 2-3 4-3 4-1z" fill="#F4B53E"/>
<path transform="translate(280,400)" d="m0 0 2 1 2 13 2 6h-5l3 1 6 6 4 5 7 1 5 3-1 9-4 5-7 2-6 9-6 6-9 1v2l-2 1h-13l-11-4-9-7-6-12-2-6-4-2 2-3h3l-3-10-1-3 5 1 4 2h9l11-4 9-6h2l1-3 5-5 6-7z" fill="#EBA078"/>
<path transform="translate(183,1112)" d="m0 0h2l5 15 4 20 2 14v10l-13 4-3 4-2 13h-38v-8l3-16 7-19 8-13h2l2-4 5-6 11-9z" fill="#28663A"/>
<path transform="translate(336,1116)" d="m0 0 9 6 10 9 3 3 2 5 3 5 4 4 7 16 5 20v8h-54v-19l2-17 3-20 3-9z" fill="#28663B"/>
<path transform="translate(576,700)" d="m0 0 2 2 4 11 6 10 5 5 5 1h5l2 3-1 8-5 5h-3l-6 12-5 5-4 1v2l-13 4-10-1-11-5-7-6-4-8-1-3-6-3-2-3v-8l4-4 6 2h7l9-4 9-7 7-7z" fill="#E89E77"/>
<path transform="translate(498,1130)" d="m0 0h11l4 4 1 26 3 4 13 27v1h-36l-1-19-1-7-1-3-17-1-9 2h-11l-8-5-4-7v-11l15 2 10-2 14-8z" fill="#32383A"/>
<path transform="translate(851,1142)" d="m0 0 9 4-1 3 4-1 6 4-1 3-5 3-5-2-4-2v3l4 1 6 4-2 1v2l7-2-4-4 6-4 5 1 4 2-1 4 6-1 5 3v-3l-5-2-2-2 7-4 5 1 4 4h-2l2 2 5-1 6 4-1 2h-2l1 3-2 2 6 5-1 4-2 2h2l5-2 7 4-4 4-4 2-2-1 2 4h-40l-25-14-13-8-9-5-1-3h-5l-8-5 3-3 5-3 7 2v-2h-2l1-3 4-2 7 1 3 3-2 3 6-2 5 2v-2l-5-2-2-1v-2z" fill="#8FC9CF"/>
<path transform="translate(428,1010)" d="m0 0h69v38h-69z" fill="#F5F4F5"/>
<path transform="translate(547,1108)" d="m0 0h77v34h-76l-1-1z" fill="#E1E1E0"/>
<path transform="translate(210,451)" d="m0 0 5 1 2 2-1 4-14 21-3 4 1 9-3 6-3 18h-2l-2 5-12 16-2 3h-13l-10-3-3-2 2-27 3-16 4-6 6 1 2-2h5l4-6 1-1h5 3l7-8 3-2h5l6-10 3-4z" fill="#ECA580"/>
<path transform="translate(185,224)" d="m0 0h24v105h-24z" fill="#3B306E"/>
<path transform="translate(511,983)" d="m0 0h169v58l-2-2 1-42h-168l1 68-2-1v-80z" fill="#E0E0E0"/>
<path transform="translate(896,485)" d="m0 0h15l6 1-1 6-1 4v38l2 20-12-6-9-2-9-1-2-1v-2l-4-2-14-11-15-12 2-20 2-2 8 19 5 8 5 1 6-9 7-15 1-11 3-2z" fill="#CF4950"/>
<path transform="translate(655,1133)" d="m0 0 5 1h29l5 5v53h-41l1-44z" fill="#323638"/>
<path transform="translate(633,1006)" d="m0 0h33v31h8v1l-10 2-3 5 4 1-3 1 1 15 4 2 1 5-1 1-10 2-6 3-6 11-1-3 1-3h-11l-1-5z" fill="#E0DFDF"/>
<path transform="translate(749,574)" d="m0 0 1 2-1 11v19l1 13 3 12 5 12 3-11h2l1-6 3-7 2-4h2l2-4 3-3 2 1v2l10 3 11-1 9-4v9l-3 34h-46l-8-10-7-14-3-10v-20l5-21z" fill="#1F1717"/>
<path transform="translate(211,875)" d="m0 0h57l3 10-1 1h-8v12l13 1 1 1v8l-5 6-4 2h-37l-6-3-5-6-9-26v-5z" fill="#90BFBC"/>
<path transform="translate(558,1045)" d="m0 0h61l3 1 1 2v28l-1 1h-65v-31z" fill="#E0DFDE"/>
<path transform="translate(254,561)" d="m0 0 7 1 7 5h3l4 5 5 3 4 1v-4l5-1 11 7 4 6 3 8-1 6-11 20-4-1-9-3v-3h-6l-1-3h-4l-4-5-7-2v-2l-3-1-5-6-3-1 2-7-1-2h-2v-2l-2-2 2-5v-5l-3-1 3-3h6z" fill="#E69E77"/>
<path transform="translate(206,1101)" d="m0 0h23l3 3 6 18v3h-12l-11-1h-11l-4 43-1 3 9-1 3 1-1 5-3 4 3 1-1 5v3 4h-31l1-13 4-5 11-3h2l-3-24-5-24-3-9 1-4 8-5z" fill="#F1B445"/>
<path transform="translate(427,1161)" d="m0 0h23l4 2h11l9-2 13 1 4 1 2 3 1 7v19h-67z" fill="#F5F4F5"/>
<path transform="translate(972,136)" d="m0 0h11l2 1 2 8 4 2-1 2h-2l1 15 2 2-4 2v-17l-3 1-1 7-1 1 2 2-3 1v4h-2v3l4 1v6l1-8h2l2 5 2 6h3l1-3 3 1-1 6v2l3 3-1 3-15 2-3 6h5l2-4 3-2 5 1 9-1v-3l4-2 5 1-3 1v6h8l-1-3 2-4v8l-7 2-2 6h-68l-2-2v-4l-2 2h-6v-9l3-1-1-6 3 2 1 8h3l1 3h34l1-4-3-4-4-19 1-2-39 1 1 7h-2l-1-10 1-2h41 3l-4-6h-10l-3-5 1-7 2-2 1-4 7-2z" fill="#7688C3"/>
<path transform="translate(838,783)" d="m0 0h63l50 1-2 5v6l5 4-1 1h-125v-7l3-6z" fill="#3A7577"/>
<path transform="translate(245,467)" d="m0 0 5 2 11 3h8l9-2 1 17 3 3 13 5-2 6-10 9-13 5h-17l-11-4-4-2v-2l-4-2-5-6-2-4 7-3 8-3 2-3z" fill="#F1A77D"/>
<path transform="translate(885,164)" d="m0 0h7l8 4 4 5 1 3v7l-3 6-7 6h-12l-7-4-4-6v-2h-154v-7l153-1 6-8z" fill="#519885"/>
<path transform="translate(889,592)" d="m0 0 4 2 9 10 5 6 8-2 5-1 7 7 7 29v9h-41l-4-26-2-25v-7z" fill="#CD4A50"/>
<path transform="translate(551,767)" d="m0 0 10 2h10l7-2h4l1 19 15 6-3 6-7 7-13 6h-18l-10-4-8-6-5-8 4-3 10-3 1-3 1-16z" fill="#F2A77D"/>
<path transform="translate(471,422)" d="m0 0h12l7 27 1 2 7-27 1-2h9l8 29 5-18 3-11h12l-2 10-10 35-1 2h-12l-3-9-4-14-2 4-6 19h-12l-5-16-7-24z" fill="#4F938F"/>
<path transform="translate(833,1105)" d="m0 0 5 1 13 8-2 1-14-8-1 1 23 13 17 10 14 8 24 14 14 8 24 14 26 15 2 2h-14l-25-14-15-9-14-8-24-14-21-12-17-10-14-8-10-5 3 3 7 4v2l-6 4-5-2-6-4-4-1 4 4 11 6-1 2-6 3-4-1-14-7-1 1 8 5-3 3-5 2-7-4-4-1v2l6 2 1 2-10 5-8-5 4-4 28-16 13-8z" fill="#244445"/>
<path transform="translate(284,684)" d="m0 0 10 1 18 6 7 3-2 10-10 30-2 3-8-1-14-4-8-3-3-1 1-9 7-23z" fill="#F5B83C"/>
<path transform="translate(190,725)" d="m0 0 3 3 14 37-1 4-29 11-4-1-10-26-4-11v-5l12-5z" fill="#509885"/>
<path transform="translate(892,693)" d="m0 0h29v86h-18l-1-74-7-8-3-3z" fill="#EACEB4"/>
<path transform="translate(559,547)" d="m0 0h8l8 19 4 10 1-2 2-24 1-3h9l6 15v3h2l3-10 3-8h9l2 13 1 11v11h-8l-2-18-6 17-5 1-5-12-1-6h-2v12l-1 6h-16l-2-4v-3l-13 1-3 6h-8l1-6z" fill="#F2EDED"/>
<path transform="translate(275,766)" d="m0 0h4l3 12 6 29-11 3-19 4h-5l-3-11-5-26 1-5z" fill="#E0DFDF"/>
<path transform="translate(925,700)" d="m0 0h17v79h-17z" fill="#AF8A71"/>
<path transform="translate(975,610)" d="m0 0 6 2v2l3 1 2 8v10l-4 13-4 6h-44l-2-13-5-21 1-3 14 14 3 2v2l3 1h11l8-4 5-7z" fill="#1E1513"/>
<path transform="translate(295,1103)" d="m0 0h10l12 3 10 4 9 5-1 8-3 12-2 6-3 21-2 30h-10l1-8 2-4 5-2 3-36v-8l-39-4 3-15 2-6h2z" fill="#F2B545"/>
<path transform="translate(768,698)" d="m0 0h35v37h-35l-1-1v-35z" fill="#CC3B2E"/>
<path transform="translate(716,347)" d="m0 0h305l1 1v304h-2v-303h-303z" fill="#D8E1E5"/>
<path transform="translate(843,810)" d="m0 0h46v81l-1-2h-2l1-3v-24l-1-2h2l-1-24-2 1-1-2h-36-3l-1 16h-1z" fill="#ECA67D"/>
<path transform="translate(590,422)" d="m0 0h11v18h15v-18h11v47h-11v-19h-15v19h-11z" fill="#4F918F"/>
<path transform="translate(931,170)" d="m0 0h40l2 11 2 10 3 4-1 4-1 1h-34l-1-4h-3l-3-9-2-1-1-12z" fill="#98BDBE"/>
<path transform="translate(902,783)" d="m0 0h70l8 5 3 6 1 7-1 3h-155v-1l18-1-19-1v-1l126-1-5-4v-6l3-5h-49z" fill="#2F5145"/>
<path transform="translate(857,1143)" d="m0 0h4v3l5 1 7 2v2l5 3 6-1 4-1v-2h-2v-3l5 2 23 13 10 6 26 15 14 8v1h-49l-2-4 4-1 5-3-6-4-5 2h-3l1-3 2-1-1-4-5-5 2-4 2-2-5-3-6 1-1-5-4-2-6 1-3 2 6 4 1 4-6-3h-6l1-4-5-2-6 1-3 3 4 4-8 1 1-3-9-5v-3l9 3 5-3v-2l-5-3h-4v-2l-2-1z" fill="#8DC4D5"/>
<path transform="translate(850,516)" d="m0 0 7 4 16 13 12 9v2l2 1-10 7-6 5-6 7-6-4-17-17 1-5 5-15z" fill="#CAE2EC"/>
<path transform="translate(474,1062)" d="m0 0h8l3 1 1 7-2 6-3-1 2 17 2 4-1 7-5 4-4 1h-11l-8-3-4-4v-7l5-5 1-7 6-4 3-10z" fill="#323637"/>
<path transform="translate(185,157)" d="m0 0h11l4 2v5h2l1-6h7v31h-7l-2-5-1 3-4 2h-11l-8-5-3-4-1-10 4-8z" fill="#E4D5CC"/>
<path transform="translate(840,807)" d="m0 0h53v97l-1 1h-52zm3 3v91h46l1-5v-80l-1-6z" fill="#393839"/>
<path transform="translate(622,547)" d="m0 0h9l4 9 4 8 6-16 1-1h9l3 27v8h-8l-1-1-1-15-2 3-4 12-1 1h-5l-6-17-2 16-1 1h-7v-13z" fill="#F2ECEC"/>
<path transform="translate(845,965)" d="m0 0 5 2 17 10 18 10 24 14 23 13 22 13 10 6 12 7 23 13 9 6 2 4v122l-3 1-1-120-3-6-13-8-42-24-13-8-11-6-26-15-34-20-11-6-10-6z" fill="#E1CCC6"/>
<path transform="translate(685,1134)" d="m0 0h4l5 5v53h-16l-1-16-1-39z" fill="#313538"/>
<path transform="translate(828,1169)" d="m0 0 5 2 10 6 11 6 14 8v1h-68l-5-4 24-14z" fill="#253F3F"/>
<path transform="translate(227,834)" d="m0 0h9l9 3 6 3 5 7-2 7 5 1 2 10h-11l-4-13v-2l-5-2v-3h-16l-2 4-1 1v11l3 10v5h-11l-2-11-2-7v-9l3-7 2-3h2v-2h2v-2z" fill="#D15E6E"/>
<path transform="translate(972,136)" d="m0 0h11l2 1 2 8 4 2-1 2h-2l1 15 2 2-4 2v-17l-3 1-1 7-1 1 2 2-3 1v4h-2v3l4 1v6l1-8h2l2 5 2 6h3l1-3 3 1-1 6v2l3 3-1 3-11 1 1-2h7v-2l-4-1-4 3h-3l-2-5h2v-2l-4-1v-2h-2l-2-7v-9l-3-1-2-4h-10l-3-5 1-7 2-2 1-4 7-2z" fill="#A85B52"/>
<path transform="translate(653,864)" d="m0 0 2 3 7 28 1 7v16l-3 9-6 7-6 4h-6v-8l6-36z" fill="#317658"/>
<path transform="translate(984,151)" d="m0 0h3v17l2-2-1-3 5-3 2-2h6l3 6v2l4 2 3 3 4 7 3 10 1 2-1 7h-8v-6l2-1-8 1v3l-4 2h-7l-4-1-4 5h-5l1-5 2-2 15-2 1-2-3-1-2-4h2v-6l-2-1-1 4h-5v-6l-2-2v-4h-2l1 5-2 4-1-4 1-3-4-1v-3h2l-1-5 2-1-1-2h2v-3l-2-1h2z" fill="#B37A68"/>
<path transform="translate(911,577)" d="m0 0 18 8 3 2-1 4-4 7-7 8-7 4-6 1-10-11-7-8 2-4 11-8z" fill="#CBE6EF"/>
<path transform="translate(885,164)" d="m0 0h7l8 4 4 5 1 3v7l-3 6-7 6h-12l-7-4-4-6v-2l-2-1 3-10 4-5z" fill="#CD3C2E"/>
<path transform="translate(477,865)" d="m0 0 2 2 6 41 3 18 1 11h-7l-8-6-4-7-2-11 1-15 6-26z" fill="#327659"/>
<path transform="translate(799,478)" d="m0 0 5 1 14 12 4 3-1 9-6 9-6 2-7-4v-2l-6-2-11-6 1-7 6-9z" fill="#C8E6EF"/>
<path transform="translate(308,157)" d="m0 0h9l6 4 4 6 1 9-3 7-6 5-2 1h-10l-5-3-4-4-2-6 1-9 4-6 4-3z" fill="#3E3271"/>
<path transform="translate(152,157)" d="m0 0h7l8 4 4 7v11l-5 7-5 3h-11l-6-4-3-4-1-3v-10l4-6 5-4z" fill="#3F3271"/>
<path transform="translate(898,780)" d="m0 0h46l18 1h10l8 4 4 6v9h-1l-2-8-2-4-7-4h-134l-5 3h-2l-2 6-1 7 23 1v1l-5 1-18 1-1 98h-1l-1-30v-57l-1-4h-56v-4h56v-8l2-7 1-4 6-5 5-2z" fill="#39393B"/>
<path transform="translate(579,503)" d="m0 0h8l7 9 6 10 1-19h8v35h-8l-7-10-6-10-1 20h-8z" fill="#F1EFF0"/>
<path transform="translate(212,463)" d="m0 0h2l5 14 5 7v2l5 2 5 3v2l-7 3-18 5-12 6-2-1 2-10 2-4v-5l-1-4 10-14z" fill="#5675FB"/>
<path transform="translate(842,385)" d="m0 0v3l-1 11 3 17-1 6-5 4-9-4-10-3-7-4-1-4 4-6 7-6 5-2z" fill="#1D1514"/>
<path transform="translate(553,422)" d="m0 0h33v9h-11v38h-10l-1-2v-36h-11z" fill="#509391"/>
<path transform="translate(661,547)" d="m0 0h16l5 3 3 5-1 8-5 5 9 11 1 3h-10l-9-12-1 12h-8z" fill="#F1EEEF"/>
<path transform="translate(958,811)" d="m0 0h11l7 6 2 5v7l-3 6-5 4-2 1h-10l-7-5-3-7v-6l5-8z" fill="#EDA076"/>
<path transform="translate(443,886)" d="m0 0h21l-2 4h-5l1 21 5 12 4 11v2l-16 1h-11l3-11 6-16v-19l-6-2z" fill="#B35752"/>
<path transform="translate(624,1082)" d="m0 0h2l5 6v7l3-2h10l1-2 8 4 1 6-8 18-3 3h-5l-4-5-9-19-4-2h-4l2-10 6-1z" fill="#F2A67E"/>
<path transform="translate(559,547)" d="m0 0h8l8 19 4 10 2-2v6l7 1v1h-16l-2-4v-3l-13 1-3 6h-8l1-6z" fill="#F2EEEE"/>
<path transform="translate(515,503)" d="m0 0h8v14h10v-13l1-1h8v35h-8l-1-1v-12l-10-1v14h-8z" fill="#F2EEEE"/>
<path transform="translate(557,503)" d="m0 0h8l11 28 2 7h-9l-2-6-13-1-2 7h-9l3-10 10-24z" fill="#F2EEEE"/>
<path transform="translate(646,158)" d="m0 0h30l5 7v2h2l2-5 3-4h8l-2 5-8 12v14h-7l-1-3-1-13-8-12-1 3h-8v25h-7v-25h-7z" fill="#413370"/>
<path transform="translate(443,547)" d="m0 0h8l13 32v3h-8l-3-6-13-1-2 7h-9l3-9 10-25z" fill="#F2EDEE"/>
<path transform="translate(624,503)" d="m0 0h8l12 29 1 6h-8l-3-6-13-1-1 5-1 2h-9l3-9 10-24z" fill="#F2EEEE"/>
<path transform="translate(235,158)" d="m0 0h30l5 7v2l3-3 4-6h8l-2 5-7 10-1 16h-7l-1-14-7-11-2-3-1 3h-8v25h-7v-25h-6l-1-1z" fill="#42326E"/>
<path transform="translate(517,547)" d="m0 0h8l1 13 10 1v-14h8v35h-8v-14h-11v14h-8z" fill="#F2F1F1"/>
<path transform="translate(855,492)" d="m0 0 11 1h21v8l-8 17-5 6-5-1-4-5-8-18-2-5z" fill="#C9E3EC"/>
<path transform="translate(196,1166)" d="m0 0h1v5l9-2 5 1-1 5-3 4 3 1-1 5v3 4h-31l1-13 4-5 11-3h2z" fill="#C7865E"/>
<path transform="translate(419,158)" d="m0 0h15l4 3 1 7-3 5 4 1 1 2v8l-4 4-3 1h-15z" fill="#45336F"/>
<path transform="translate(834,1106)" d="m0 0 11 6 10 4 25 14 48 28 17 10 11 6 26 15 3 3h-7l-18-10-24-14-17-10-26-15-21-12-24-14-15-9z" fill="#91C2D2"/>
<path transform="translate(855,495)" d="m0 0 2 2 7 17 5 8 5 1 6-9 6-12h1l-1 41-7-4-8-7-14-11-5-4 2-20z" fill="#354A50"/>
<path transform="translate(768,698)" d="m0 0h35v37h-35l-1-1v-35zm4 5-1 1v24l2 2h25l1-1v-26z" fill="#483A38"/>
<path transform="translate(696,1094)" d="m0 0 1 2h7l5 49v5l-7 5 1-4-1-1-2 3-1-7-1-1v-6h2l-4-7-2-9v-21z" fill="#F1A57D"/>
<path transform="translate(902,783)" d="m0 0h70l8 5 3 6v6h-30l-5-5v-6l3-5h-49z" fill="#397574"/>
<path transform="translate(750,243)" d="m0 0h13l6 3 3 3 1 4v9l-3 5-6 3h-14z" fill="#E4D2C9"/>
<path transform="translate(467,158)" d="m0 0h16l5 5v8l-5 6 9 10v2h-9l-8-11-1 11h-7z" fill="#3E306E"/>
<path transform="translate(934,186)" d="m0 0 3 2 1 8h3l1 3 46 1 1-3h17l4 1 1 7-1 1h-68l-2-2v-4l-2 2h-6v-9l3-1z" fill="#6A5151"/>
<path transform="translate(609,158)" d="m0 0h16l5 5v7l-2 4-4 1 8 10 2 4h-9l-8-11-1 11h-7z" fill="#3D316F"/>
<path transform="translate(499,546)" d="m0 0 10 1 3 2-1 5-1 2-10-1 1 4 8 4 5 6-1 8-6 5h-13l-6-3 1-5 2-3 5 2 6 1 2-1v-3l-11-6-3-6 2-7 5-4z" fill="#F2EBEC"/>
<path transform="translate(824,813)" d="m0 0 2 2v37l-1 3h-57v-4h56v-18h-56v-4h56z" fill="#4A3F3B"/>
<path transform="translate(825,1109)" d="m0 0 1 3h-2l3 3 7 4v2l-6 4-5-2-6-4-4-1 4 4 11 6-1 2-6 3-4-1-14-7-1 1 8 5-3 3-5 2-7-4-4-1v2l6 2 1 2-10 5-8-5 4-4 28-16z" fill="#284645"/>
<path transform="translate(539,422)" d="m0 0h11v47h-11z" fill="#4E9584"/>
<path transform="translate(834,1159)" d="m0 0 6 1 34 20 8 5-2 4-4 2-5-1-24-14-20-12 1-2z" fill="#264242"/>
<path transform="translate(664,1044)" d="m0 0h12l1 7 5 1v9l1 7 6 1v1h-7l-2 5-1 1h-8l-4-6v-5l-5-5v-13l2-2z" fill="#F1A67E"/>
<path transform="translate(768,763)" d="m0 0h121v4h-121z" fill="#3B3E41"/>
<path transform="translate(474,1161)" d="m0 0 13 1 4 1 2 3 1 7v19h-16l-1-28-7-1z" fill="#DED8D8"/>
<path transform="translate(580,158)" d="m0 0h7l1 20 1 3h7l1-3 1-20h7v23l-4 6-3 2h-11l-6-5-1-4z" fill="#3D3170"/>
<path transform="translate(177,478)" d="m0 0h5l5 5 3 7v7l-5 8-1 3h-2l2-6 2-4-7-1-1 9-7-1-1 3-3 1-3-1v-2l5 1-3-11-2-8 3-3h5l4-6z" fill="#E8A183"/>
<path transform="translate(210,451)" d="m0 0 5 1 2 2-1 4-14 21-3 4 1 7-6-1-4 4-5-12v-3l7-8 3-2h5l6-10 3-4z" fill="#E8CFBC"/>
<path transform="translate(890,1153)" d="m0 0 5 1 4 4h-2l2 2 5-1 6 4-1 2h-2l1 3-2 2 6 5-1 2-7-3-6 3-2 4-7-4-6 2-4 2v-3l5-3-4-4v-2l7-1 3-2v-5l-5-2-2-2z" fill="#8EC7D2"/>
<path transform="translate(904,1173)" d="m0 0 8 4-3 4h2l5-2 7 4-4 4-4 2-2-1 2 4h-17l-8-5 2-3-5 2-7-5 3-3 6-2 7 4 2-4z" fill="#7AB0B3"/>
<path transform="translate(984,151)" d="m0 0h3l1 18-1 3 4 1 1-2h-3l2-4 6 2 1-2 3 3 1 2 6-2 4 8h-3-3v-2h-2l-1 3h-2v2l2 1-1 7 1 2h-2v2l-9 2-4 1-3 4h-5l1-5 2-2 15-2 1-2-3-1-2-4h2v-6l-2-1-1 4h-5v-6l-2-2v-4h-2l1 5-2 4-1-4 1-3-4-1v-3h2l-1-5 2-1-1-2h2v-3l-2-1h2z" fill="#E3DAD3"/>
<path transform="translate(888,807)" d="m0 0h5v97h-14l-30-1-5-1v-1h45v-91h-12l2-2z" fill="#335045"/>
<path transform="translate(185,157)" d="m0 0h11l4 2-2 6h-11l-5 5v6l1 4 3 1h12l2 6-4 2h-11l-8-5-3-4-1-10 4-8z" fill="#3F3270"/>
<path transform="translate(375,157)" d="m0 0h8l5 2-1 5-4 1h-7l-4 2-2 4 1 7 5 3h10l3 6-4 2h-12l-6-4-4-5-1-2v-10l4-6 6-4z" fill="#3E3272"/>
<path transform="translate(564,157)" d="m0 0h7l6 2-1 5-2 2-2-1h-7l-4 2-2 4 1 7 4 3h11l2 3-1 4-2 1h-12l-6-4-4-5-1-2v-10l4-6 6-4z" fill="#3E3170"/>
<path transform="translate(530,158)" d="m0 0h18v6h-11v6h10v6h-10l1 6h8l2 1v6h-18z" fill="#3C3070"/>
<path transform="translate(513,157)" d="m0 0h8l4 2-1 5-3 1-8-1 1 4 8 4 4 4v8l-4 4-2 1h-11l-6-3 2-5 2-2 5 3h5v-4l-9-6-2-2v-7l4-5z" fill="#3F316F"/>
<path transform="translate(124,157)" d="m0 0h8l4 2-1 5-3 1-8-1v4l6 2 7 5 1 5-3 7-4 2h-11l-6-3 3-6 7 2 5-1v-4l-6-2-5-4-1-2v-6l5-5z" fill="#3F3270"/>
<path transform="translate(465,547)" d="m0 0h9v27h11l1 1v6l-1 1h-19l-1-1z" fill="#F0E0DF"/>
<path transform="translate(445,158)" d="m0 0h18v5l-1 1h-10v6h10v6h-10v7h11v6h-18z" fill="#3D306F"/>
<path transform="translate(215,158)" d="m0 0h17l1 5-1 1h-10v6h10v6h-10l1 6 9 1v6h-17z" fill="#3D3170"/>
<path transform="translate(487,503)" d="m0 0h25v7h-8v28h-8v-28h-8l-1-1z" fill="#F3EFEF"/>
<path transform="translate(509,1095)" d="m0 0 5 1 12 6-1 6-5 8-5 1-7 1-9-1 2-5z" fill="#F6F5F6"/>
<path transform="translate(936,1176)" d="m0 0 5 2 23 13v1h-44l-2-1v-2l5-3h7l-3-3v-2l5-3h4z" fill="#92CDD3"/>
<path transform="translate(824,1112)" d="m0 0 4 1 12 6 4 3 11 6 12 7v2l-5-1-4-1-5 2v-3l2-2-5-3-5 1-4 2 4 3v2h-5l-6 2 3-4-5-4-5 1-2 1-1-3 3-1-13-8-1-3 5 1 8 5 4-2 4-1-1-2-9-5z" fill="#92CBD2"/>
<path transform="translate(428,1010)" d="m0 0h69v6l-68-1v33h-1z" fill="#E1DDDA"/>
<path transform="translate(972,136)" d="m0 0h11l2 1 2 8 4 2-1 2h-2l1 15 2 2-4 2-1-18-8-3-2 5-3 1-5-4v-2l-6 1-1 3h-2l1 3h5l1-2h2v3h-2v2h12l-1 2-10 1h-6l-3-5 1-7 2-2 1-4 7-2z" fill="#483C66"/>
<path transform="translate(1007,1062)" d="m0 0 3 1v122l-3 1-1-123z" fill="#E3BFB6"/>
<path transform="translate(939,1018)" d="m0 0 6 2 27 16 18 10 17 10 4 6 1 3v119l-5 5-2-1 1-2 3-1v-122l-3-5-26-15-11-6-17-10-13-8z" fill="#744262"/>
<path transform="translate(446,257)" d="m0 0h2l10 26 1 4h-23l2-9z" fill="#E3D4CB"/>
<path transform="translate(564,1051)" d="m0 0h51l1 1v5l-1 1h-50l-1-1z" fill="#F6F5F6"/>
<path transform="translate(898,780)" d="m0 0h46l18 1h10l8 4 4 6v9h-1l-2-8-2-4-7-4h-134l-5 3h-2l-2 6-1 7-3-1 2-11 6-5 5-2z" fill="#2F3638"/>
<path transform="translate(389,158)" d="m0 0h8l6 8 4-5 2-3h9l-7 11-3 5-1 15h-7l-1-15-10-15z" fill="#3D3171"/>
<path transform="translate(331,158)" d="m0 0h18v6h-11v6h10v6h-10v13h-7z" fill="#3C306F"/>
<path transform="translate(673,1139)" d="m0 0h3l1 7 1 30v16h-9l-1-13 5-33z" fill="#CD5B6B"/>
<path transform="translate(858,1134)" d="m0 0 9 2 5 2 14 8v4h2v2l-6 3-6-1-4-4-11-4v-3l-6-1-4-4z" fill="#8FC7CB"/>
<path transform="translate(510,1085)" d="m0 0 1 3-1 5 2 1-3 3-8 17-2 2-18 1-5-1v-1h9v-9l16-8z" fill="#D36170"/>
<path transform="translate(857,1143)" d="m0 0h4v3l5 1 7 2v2l5 3 6-1 4-1v-2h-2v-3l5 2 23 13 3 2v2h-6l-4 1v-2l2-2-5-3-6 1-1-5-4-2-6 1-3 2 6 4 1 4-6-3h-6l1-4-5-2-6 1-3 3 4 4-8 1 1-3-9-5v-3l9 3 5-3v-2l-5-3h-4v-2l-2-1z" fill="#8FC7D1"/>
<path transform="translate(511,983)" d="m0 0h169v58l-2-2 1-54h-166l-1 1v79l-2-1v-80z" fill="#E5D6CA"/>
<path transform="translate(646,158)" d="m0 0h23l-1 6h-8v25h-7v-25h-7z" fill="#3E3374"/>
<path transform="translate(235,158)" d="m0 0h23l-1 6h-8v25h-7v-25h-6l-1-1z" fill="#3D306F"/>
<path transform="translate(803,620)" d="m0 0h1l-1 16h-2v12l-1 4h-23l5-4 5-5 7-8 4-5z" fill="#36464F"/>
<path transform="translate(601,1120)" d="m0 0h17l1 1v16h-18z" fill="#F6F5F6"/>
<path transform="translate(898,898)" d="m0 0h73l-1 4h-73z" fill="#375347"/>
<path transform="translate(817,745)" d="m0 0h72v4h-72z" fill="#3E3B3C"/>
<path transform="translate(958,811)" d="m0 0h11l7 6 2 5v7l-3 6-5 4-2 1h-10l-7-5-3-7v-6l5-8zm1 3-6 5-1 2v9l4 5 5 2 7-1 5-4 1-2v-9l-5-6-2-1z" fill="#3B3C3B"/>
<path transform="translate(691,547)" d="m0 0h8v35h-8z" fill="#F2F1F2"/>
<path transform="translate(974,164)" d="m0 0 3 1v9l1 7h2v2l4 1-1 3 1 4 7-4 3 1 1 3-7 1-6 3-2 5h5l2-4 3-2 5 1 9-1v-3l4-2 5 1-3 1v6h8l-1-3 2-4v8l-7 2h-2v-2h-21l-1 2 4 1h-14l-2-2 1-4-2-3v-7l1 3h2l1 5 2-3-5-10-3-11-1-2 3-1z" fill="#393346"/>
<path transform="translate(831,782)" d="m0 0h2l-2 4-4 2-1 10-2 1v-7l1-3h-57v-4l61-1z" fill="#5B3D3B"/>
<path transform="translate(216 1e3)" d="m0 0h1v29h2l1 23v16h-7v-25l1-15h2z" fill="#F5B94C"/>
<path transform="translate(851,1115)" d="m0 0 4 1 25 14 48 28 17 10 11 6 26 15 3 3-5-1-24-14-28-16-24-14-42-24-11-7z" fill="#485A56"/>
<path transform="translate(309,164)" d="m0 0h7l4 5v8l-4 5h-8l-3-3-1-2v-7l3-5z" fill="#E4D5CC"/>
<path transform="translate(152,164)" d="m0 0h7l4 4v10l-3 4h-9l-3-4-1-7 3-6z" fill="#E3D3CB"/>
<path transform="translate(916,414)" d="m0 0 4 2 6 7 4 7 2 9 3 4 1 3v9l-5 3-7-2 1-11 2-5v-9l-5-9-5-5z" fill="#C3E4EE"/>
<path transform="translate(840,486)" d="m0 0h15l1 3-3 24-2 4-1-3v-12l-1-4h-2v8l-2-1v-9l-5-5v9h-1l-2-13z" fill="#C04D52"/>
<path transform="translate(571,1013)" d="m0 0 6 1 2 4h45l1 2-3 1h-42l-3 4h-7l-2-4 1-5z" fill="#E2DDD8"/>
<path transform="translate(938,1019)" d="m0 0 6 2 17 10 10 6 9 5 26 15 3 5-4 1-5-5-17-10-15-9-11-6-10-6-9-5z" fill="#E1CAC4"/>
<path transform="translate(732,1161)" d="m0 0 7 3 26 15 11 7 10 5v1h-8l-18-10-17-10-11-7z" fill="#E3CDC5"/>
<path transform="translate(547,1108)" d="m0 0h20v1h-18v26l1 6h73v-32h-52v-1h53v34h-76l-1-1z" fill="#E5D6CB"/>
<path transform="translate(442,925)" d="m0 0 2 1-4 10-13 1-2 2-2 8 2 1v5l132 1v1h-135l-1-2v-17l2-1h16l2-8z" fill="#EFD3B9"/>
<path transform="translate(966,872)" d="m0 0 5 1v3h-74v-3z" fill="#313638"/>
<path transform="translate(897,886)" d="m0 0h74v3h-74z" fill="#323C40"/>
<path transform="translate(897,860)" d="m0 0h74v3h-74z" fill="#303638"/>
<path transform="translate(897,847)" d="m0 0h74v3h-74z" fill="#323C40"/>
<path transform="translate(856,438)" d="m0 0 2 3 2 5 2 4-1 6-3 3-5 1-5-3-2-3 1-7 5-3 1-5z" fill="#BD4A52"/>
<path transform="translate(636,158)" d="m0 0h7v31h-7z" fill="#3B306E"/>
<path transform="translate(203,158)" d="m0 0h7v31h-7z" fill="#3B306E"/>
<path transform="translate(238,887)" d="m0 0h7l3 2 1 7-2 3v8l1 8-4-1-2-10-1-3-5-2-1-2v-6z" fill="#CD6670"/>
<path transform="translate(827,804)" d="m0 0h10v1l-7 2v94l-2 4-1-3z" fill="#D4BDBF"/>
<path transform="translate(798,1125)" d="m0 0 6 2 6 4-3 3-5 2-7-4-4-1v2l6 2 1 2-10 5-8-5 4-4z" fill="#2A4547"/>
<path transform="translate(600 1e3)" d="m0 0h6l2 4h16v2h-16l-2 4h-6l-2-4h-43v-2h43z" fill="#E0E0E0"/>
<path transform="translate(808,713)" d="m0 0h68v3h-69z" fill="#413535"/>
<path transform="translate(884,439)" d="m0 0h3l1 5 5 1 3 3v7l-4 4h-7l-4-4v-6l2-3z" fill="#C04951"/>
<path transform="translate(447,1034)" d="m0 0h41v5h-41z" fill="#E0E0E0"/>
<path transform="translate(592,1027)" d="m0 0 5 3 1 1 27 1-1 2-26 1-3 3h-5l-3-3-32-1v-2l32-1z" fill="#E0E0E0"/>
<path transform="translate(447,1024)" d="m0 0h41v5h-40z" fill="#E0E0E0"/>
<path transform="translate(984,169)" d="m0 0h2l2 5 2 6h3l1-3 3 1-1 6v2l3 3-1 3-11 1 1-2h7v-2l-4-1-4 3h-3l-2-5h2v-2h-2l-2-5-1-3h2l1-5 1 3v3z" fill="#BA655A"/>
<path transform="translate(194,519)" d="m0 0 4 4 4 9 2 12 1 18v40l-2-1-1-37-1-7-4-6-2-5-2-6h2l6 12v-10l-3-14-4-6z" fill="#212625"/>
<path transform="translate(161,791)" d="m0 0h13v15h-13z" fill="#F6B93C"/>
<path transform="translate(212 1e3)" d="m0 0h4v27l-2-1 1-9-7-1-4-2-4-4 1-3 3-3 6-2z" fill="#29643C"/>
<path transform="translate(911,577)" d="m0 0 18 8 3 2-1 4-4 7-7 8-7 4-6 1-10-11-7-8 2-4 11-8zm-2 3-7 2-2 4-5 1-2 2 1 5 9 10 4 5 6-1 2-1v-2l5-2 7-7 2-5v-4l-15-7z" fill="#E2DBD5"/>
<path transform="translate(761,1137)" d="m0 0 2 1-13 8-17 10v3l56 32-3 1-13-7-17-10-20-12-3-1v3l6 4-2 1-6-4-1-1v-9l5-4 21-12z" fill="#714250"/>
<path transform="translate(178,495)" d="m0 0 1 2 4-1 3 2-2 6-2 4h-2l-1 4-3 5-4 6-2 2-5-5 3-5 3-4h2l1-4 3-1z" fill="#EBCEB5"/>
<path transform="translate(218,1021)" d="m0 0 18 8 2 5 6-4-3 11-3 16h-4v-13l-2-1h2l-1-14-5-1-4-2h-6z" fill="#30282E"/>
<path transform="translate(543 1e3)" d="m0 0 2 1v68h-3v-64z" fill="#E0E0E0"/>
<path transform="translate(317,578)" d="m0 0h2v11l-1 9 12 3 6 3 18 6 4 2v2l-10-3-13-4-12-5-13-4h-2l-6 11-5 8-1-2 10-19 5-1 5 2z" fill="#2A3537"/>
<path transform="translate(876,801)" d="m0 0h91l-2 2-72 1-13-1z" fill="#3F3535"/>
<path transform="translate(897,827)" d="m0 0h43v4h-42z" fill="#334044"/>
<path transform="translate(623,1078)" d="m0 0 3 1 5 7-1 2-4-4-1 1-1 2-5-1v6l-1 1h-108v-5l1 4 105-1 1-6 1-1h5z" fill="#E5D6CB"/>
<path transform="translate(521,1114)" d="m0 0 2 2-2 9h-2v2h-4v3l-5-1-6-2 2-1 1-7 9-4z" fill="#F2A67F"/>
<path transform="translate(962,142)" d="m0 0 3 1-1 2 4-2h6l2 2h-2v3l2-1 1-3 5 2 2 2-6-1-2 5-3 1-5-4v-2l-6 1-1 3h-2l1 3h5l1-2h2v3h-2v2h12l-1 2-10 1h-6l-3-5 1-7 2-2z" fill="#302F34"/>
<path transform="translate(824,1112)" d="m0 0 4 1 12 6 4 3 3 2-5 5-2 1h-6l-5-3 1-5 4-1-1-2-9-5z" fill="#8BC4CE"/>
<path transform="translate(291,1107)" d="m0 0h2l-4 16-2 6h-11l-2-2 13-15z" fill="#28683C"/>
<path transform="translate(995,158)" d="m0 0h6l3 6v2l3 1v4l-5 2-2-4h-3l-6-1-2 3h3l-1 3-4-2 1-4 1-2-1-3 5-3z" fill="#C9B39F"/>
<path transform="translate(326,1142)" d="m0 0h1l1 14-2 17-1 19h-10l1-8 2-4 5-2z" fill="#C58763"/>
<path transform="translate(589,1065)" d="m0 0h27v6h-27z" fill="#F6F5F6"/>
<path transform="translate(525,159)" d="m0 0 4 2v18l-3 3-1-8-12-6v-4l5-1 5 1z" fill="#E3CFC6"/>
<path transform="translate(251,1067)" d="m0 0 18 2h10l-1 4-3 2-11 1-8-2-5-4z" fill="#E9D6C7"/>
<path transform="translate(896,485)" d="m0 0h15l6 1-1 6-1 4v38l2 20-2-1-2-10-1-16v-26l2-11 1-2-19-1z" fill="#BB5B56"/>
<path transform="translate(292,1031)" d="m0 0 7 5 4-3 7-1-3 2-5 1-2 18-1 5-4 1-2-21z" fill="#38393B"/>
<path transform="translate(841,804)" d="m0 0h51l-1 3h-50z" fill="#D0CACE"/>
<path transform="translate(509,1095)" d="m0 0 5 1 12 6-1 6-5 8-5 1-7 1-9-1 2-5zm1 3-8 15v2l5 1h7l7-5 3-7-12-6z" fill="#E8D5C2"/>
<path transform="translate(177,537)" d="m0 0 8 1v34l-2 30h-2l2-60-7-1z" fill="#242E2F"/>
<path transform="translate(848,821)" d="m0 0h36l1 4h-37z" fill="#403535"/>
<path transform="translate(768,745)" d="m0 0h36v4h-36z" fill="#3D393A"/>
<path transform="translate(504,224)" d="m0 0h1v105h23v1h-25l-3-2 1-3h2z" fill="#E0E0E0"/>
<path transform="translate(666,1038)" d="m0 0h10l5 5 1 8h-5l-1 2v-9l-15 1 2-5z" fill="#3A3C3C"/>
<path transform="translate(217,695)" d="m0 0 4 1 5 4-2 5-5 6-5-2-3-3 1-4z" fill="#5675FB"/>
<path transform="translate(330,752)" d="m0 0 5 1 3 7-1 5-5 2-4-1-3-8 1-4z" fill="#5775FC"/>
<path transform="translate(825,1109)" d="m0 0 1 3h-2l3 3 7 4v2l-6 4-5-2-9-6 3-3z" fill="#2B4446"/>
<path transform="translate(927,615)" d="m0 0 7 6 6 6-2 5-4 7h-2l-5-21z" fill="#37454C"/>
<path transform="translate(526,1041)" d="m0 0 6 1 1 6-2 4 2 9-1 2-4-1 2-2-1-4-1-2-4-1-1 2-3 1 2-5 1-9z" fill="#E8D4C2"/>
<path transform="translate(153,688)" d="m0 0h4l3 9v4l-9 2-4-9 1-4z" fill="#E0DFDF"/>
<path transform="translate(966,785)" d="m0 0 7 1 2 3-1 7-2 2h-6l-4-5 1-5z" fill="#413535"/>
<path transform="translate(952,785)" d="m0 0 6 1 3 4-1 5-1 2-7 1-4-3v-6z" fill="#323D40"/>
<path transform="translate(838,779)" d="m0 0h60v2l-60 1-5 1v-2z" fill="#433636"/>
<path transform="translate(624,1082)" d="m0 0h2l5 6v7l-1 2-13-1 2-10 6-1z" fill="#DF9574"/>
<path transform="translate(882,689)" d="m0 0 7 6 8 9v1h-14l-1-1z" fill="#B48670"/>
<path transform="translate(216 1e3)" d="m0 0h1v29h2v14l-2-1-1-5-1 25 1 6h-3v-25l1-15h2z" fill="#D88E72"/>
<path transform="translate(934,186)" d="m0 0 3 2 1 8h3l1 3 34 1v1l-34 1-2 2v-4l-2 2h-6v-9l3-1z" fill="#B86A61"/>
<path transform="translate(166,486)" d="m0 0h5l4 8 2 6v5l-5-1-6-12-1-5z" fill="#E9A17F"/>
<path transform="translate(932,1163)" d="m0 0 10 5 23 13 17 10-4 1-18-10-24-14-5-4z" fill="#8EC2CA"/>
<path transform="translate(939,1018)" d="m0 0 6 2 27 16 18 10 17 10 4 6-2 1-3-5-26-15-11-6-17-10-13-8z" fill="#4B3979"/>
<path transform="translate(234,1107)" d="m0 0 5 4 10 14v1h-12l-1-8-2-6z" fill="#29673D"/>
<path transform="translate(357,696)" d="m0 0 4 1 4 3-2 5-4 5-4-1-4-3 2-5z" fill="#509885"/>
<path transform="translate(195,468)" d="m0 0 4 1-2 5-7 12h-3l-3-7 9-10z" fill="#F0A57E"/>
<path transform="translate(890,896)" d="m0 0h2v8l-43-1-5-1v-1h45z" fill="#6E4240"/>
<path transform="translate(976,200)" d="m0 0 4 2v2h-39l1-3z" fill="#90C0C2"/>
<path transform="translate(847,886)" d="m0 0h38v3h-38z" fill="#403535"/>
<path transform="translate(847,873)" d="m0 0h38v3h-38z" fill="#403535"/>
<path transform="translate(847,860)" d="m0 0h38v3h-38z" fill="#403535"/>
<path transform="translate(847,847)" d="m0 0h38v3h-38z" fill="#403535"/>
<path transform="translate(886,1147)" d="m0 0 5 2 23 13 3 2v2h-6l-4 1v-2l2-2-5-3-6 1-1-5-9-3v-3h-2z" fill="#92CAD7"/>
<path transform="translate(847,807)" d="m0 0h41v1l-9 1-2 1h-35l1-2z" fill="#383C3F"/>
<path transform="translate(822,1151)" d="m0 0 5 2 5 3-2 4-3 2h-5l-8-5 3-3z" fill="#274342"/>
<path transform="translate(848,834)" d="m0 0h36l1 3h-38z" fill="#403535"/>
<path transform="translate(856,475)" d="m0 0 7 2h19l-3 3-5 2-6 1h-9l-3-1z" fill="#281F20"/>
<path transform="translate(882,1183)" d="m0 0 7 2 4-2-2 4 7 4v1h-23l3-3 3-2z" fill="#8EC7CC"/>
<path transform="translate(962,147)" d="m0 0h6l5 5 4 2h-2l1 4h-11l1-3h2v-3h-2l-1 3h-5l-1-4h2z" fill="#BF705A"/>
<path transform="translate(931,166)" d="m0 0h41v1h-40v2h40l1 5-3-1 1-3-39 1 1 7h-2l-1-10z" fill="#3C5C56"/>
<path transform="translate(845,1175)" d="m0 0 5 2 25 14v1h-7l-15-9-7-4z" fill="#E7C2B4"/>
<path transform="translate(522,1053)" d="m0 0 6 1 3 3-1 4-5 3-3 3-5-6 2-1z" fill="#ECA17B"/>
<path transform="translate(1007,168)" d="m0 0 4 3 4 8h-2v3l-3 3h-2v3l-4-1-1-1v-5h-2v-2l3-3 7 2-4-8z" fill="#B98865"/>
<path transform="translate(828,702)" d="m0 0h26v4h-26z" fill="#404B44"/>
<path transform="translate(799,1138)" d="m0 0 5 1 5 5-9 5-8-5v-2z" fill="#274645"/>
<path transform="translate(788,1131)" d="m0 0 5 2 5 3-5 4-5 2-8-5 4-4z" fill="#2B4243"/>
<path transform="translate(1e3 181)" d="m0 0 2 1-1 7 1 2h-2v2l-9 2-4 1-3 4h-5l1-5 2-2 15-2 1-2-3-1-2-4 6 1z" fill="#ECD1BA"/>
<path transform="translate(791,1131)" d="m0 0 5 1 7 3 6-2-1 3-2 2 4 2v3l-5-2-3-2-4 1-6 2 1 3-5-2 3-3 6-4-6-3z" fill="#98CECF"/>
<path transform="translate(203,553)" d="m0 0h1l1 9v40l-2-1-1-37-1-9z" fill="#202525"/>
<path transform="translate(501,1127)" d="m0 0h7l4 3-1 2-2-1h-11l-16 2v-3h-17v-1h18l1 1z" fill="#C85A5C"/>
<path transform="translate(1008,189)" d="m0 0 5 1-3 1v6h8l-1-3 2-4v8l-7 2h-2v-2l-16-1 1-2 9-1v-3z" fill="#4C3736"/>
<path transform="translate(811,1145)" d="m0 0 6 2 3 3-7 5-6-2-4-4z" fill="#264342"/>
<path transform="translate(577,1064)" d="m0 0h10l1 1v7h-11l-1-1v-6z" fill="#F5B740"/>
<path transform="translate(660,1043)" d="m0 0 1 2 4 1-3 1 1 15 4 2 1 5-1 1-13 2 2-2 8-1 1-4-4-2-1-1-1-16z" fill="#EAD4C0"/>
<path transform="translate(902,783)" d="m0 0h70l1 3-14-2 1 4-4-2h-5v-2h-49z" fill="#2F7558"/>
<path transform="translate(890,637)" d="m0 0 2 3 1 12h-47l1-3 1 1 21 1v-11h1v11h20z" fill="#3D3535"/>
<path transform="translate(605,158)" d="m0 0 2 3 1-3h1v31h-1l-1-7-3 1z" fill="#E0E0E0"/>
<path transform="translate(978,147)" d="m0 0 8 2 1 2-3 1-1 7-1 1 2 2h-4l-2-5-3-1 1-5z" fill="#B95953"/>
<path transform="translate(941,1166)" d="m0 0 10 5 24 14 10 6-3 1-21-12-16-9-4-3z" fill="#535858"/>
<path transform="translate(887,1176)" d="m0 0 6 2 3 3-7 5-5-2-4-4z" fill="#274B4A"/>
<path transform="translate(897,1182)" d="m0 0 4 1 6 3-4 4-5 2-8-5 4-3z" fill="#274D4A"/>
<path transform="translate(761,1137)" d="m0 0 2 1-13 8-17 10 1 5h-2l1 4 6 4-2 1-6-4-1-1v-9l5-4 21-12z" fill="#453C72"/>
<path transform="translate(813,1118)" d="m0 0 5 1 8 5h3v3l10 3-3 1-1 2-3-2-5 1-2 1-1-3 3-1-13-8z" fill="#90C8D1"/>
<path transform="translate(230,1043)" d="m0 0 4 1-1 11-2-1v-5h-2l-2 7h-2l-1 3v-10l3-5z" fill="#CE8766"/>
<path transform="translate(256 1e3)" d="m0 0h22l10 3 7 5 2 5-7-6-9-4-19-1-10 2-6 2 3-3z" fill="#29393A"/>
<path transform="translate(882,1161)" d="m0 0 5 1 4 4-7 4-6-2-3-3z" fill="#274A4B"/>
<path transform="translate(932,1178)" d="m0 0h5l5 3v2l-7 4-5-2-3-2v-2z" fill="#264949"/>
<path transform="translate(892,1167)" d="m0 0 5 1 5 3-3 3-4 2-4-1-5-3 2-3z" fill="#254749"/>
<path transform="translate(844,1151)" d="m0 0 5 2 4 2v2l-5 3-7-1-3-2 1-3z" fill="#254748"/>
<path transform="translate(823,1139)" d="m0 0 5 2 4 2-3 3-3 2-6-1-4-4z" fill="#254747"/>
<path transform="translate(829,1130)" d="m0 0 4 1 5 4-6 4-5-1-5-3 1-2z" fill="#254847"/>
<path transform="translate(847,1128)" d="m0 0 4 1 5 3-3 3-3 2-5-1-5-4 5-3z" fill="#254748"/>
<path transform="translate(876,1170)" d="m0 0 5 1 4 4-6 4-7-2-2-3z" fill="#254648"/>
<path transform="translate(865,1164)" d="m0 0 5 1 5 3-4 3-3 2-4-1-6-3 1-2z" fill="#254747"/>
<path transform="translate(900,1159)" d="m0 0 5 1 5 3-3 3-6 2-7-4 1-2z" fill="#244647"/>
<path transform="translate(854,1158)" d="m0 0 6 1 4 4-7 4-6-2-2-4z" fill="#254848"/>
<path transform="translate(890,1153)" d="m0 0 5 1 4 4-6 4-5-1-5-4z" fill="#244746"/>
<path transform="translate(861,1148)" d="m0 0 5 2 3 2-1 3-5 3-5-2-3-2 1-3z" fill="#264A49"/>
<path transform="translate(851,1142)" d="m0 0 9 4-3 3-6 3-7-4v-2z" fill="#244548"/>
<path transform="translate(840,1136)" d="m0 0 5 2 4 3-6 4-6-1-4-2 1-3z" fill="#264948"/>
<path transform="translate(858,1134)" d="m0 0 6 2 3 3-7 4-5-1-4-4z" fill="#254747"/>
<path transform="translate(951,179)" d="m0 0h6l1 1v9l-1 1h-5l-2-3v-7z" fill="#5E8DB2"/>
<path transform="translate(914,1179)" d="m0 0 5 2 4 3-8 5-8-5 4-3z" fill="#244746"/>
<path transform="translate(923,1171)" d="m0 0 8 4v2l-8 4-4-2v-2h-3l1-3z" fill="#234545"/>
<path transform="translate(812,1133)" d="m0 0 6 2 3 3-6 4-5-1-5-3 3-3z" fill="#254849"/>
<path transform="translate(900,871)" d="m0 0h70l4 2-1 2h-2v-2l-71-1z" fill="#C8E2EE"/>
<path transform="translate(888,807)" d="m0 0h4l-1 39h-1l-1-36h-12l2-2z" fill="#433737"/>
<path transform="translate(943,1184)" d="m0 0 5 1 5 3-5 4h-6l-5-3 2-3z" fill="#234644"/>
<path transform="translate(869,1140)" d="m0 0 8 4v2l-5 3-6-1-4-2 1-3z" fill="#244846"/>
<path transform="translate(279,1036)" d="m0 0 10 2 2 4-1 2-9-2h-7l1-5z" fill="#403535"/>
<path transform="translate(888,493)" d="m0 0h1v12l-1 23v15l1 2-4-2 1-42z" fill="#B75752"/>
<path transform="translate(815,489)" d="m0 0 7 5-1 9-6 9-6 2-7-4v-2l4 1 6 2 6-7v-10l-3-2z" fill="#E2DCD6"/>
<path transform="translate(979,201)" d="m0 0h28v2l-3 1h-24z" fill="#5775FC"/>
<path transform="translate(911,1165)" d="m0 0 4 1 5 3-5 5-6-1-4-4z" fill="#234344"/>
<path transform="translate(871,1155)" d="m0 0 5 1 4 2-1 3-7 3-7-4 4-4z" fill="#244645"/>
<path transform="translate(835,1122)" d="m0 0 6 1 4 4-5 3h-6l-4-4z" fill="#244647"/>
<path transform="translate(571,1014)" d="m0 0 5 1 2 2v5l-2 2h-6l-2-3 1-5z" fill="#F5B83D"/>
<path transform="translate(925,1179)" d="m0 0h3v4l3 3-3 1-7 1-3 1v2l2 1h-5l-2-4 4-1 5-3-3-3z" fill="#89C2CD"/>
<path transform="translate(832,1146)" d="m0 0 7 1 3 3-6 4-5-1-4-2 1-3z" fill="#244745"/>
<path transform="translate(251,1035)" d="m0 0h7l3 2v3l-16 2v-4z" fill="#342B2F"/>
<path transform="translate(984,151)" d="m0 0h3v13l-1 3h-2l-1-2-2 5h-2v-3h2l-1-5 2-1-1-2h2v-3l-2-1h2z" fill="#EED1B7"/>
<path transform="translate(904,1173)" d="m0 0 8 4-4 4-5 1-6-4 3-3z" fill="#214341"/>
<path transform="translate(987,1047)" d="m0 0 5 2 14 8 3 5-4 1-5-5-13-8z" fill="#E2C7C1"/>
<path transform="translate(878,1147)" d="m0 0h5l5 3v2l-6 3-6-1-3-3z" fill="#244445"/>
<path transform="translate(322,600)" d="m0 0 10 2 16 6 6 2 4 2v2l-10-3-13-4-12-5z" fill="#212B27"/>
<path transform="translate(226,425)" d="m0 0 4 4 1 8-6 2-2-8 2-5z" fill="#BA7E66"/>
<path transform="translate(834,1106)" d="m0 0 11 6 21 12-4 1-26-15-3-3z" fill="#9DC4C4"/>
<path transform="translate(845,965)" d="m0 0 5 2 16 9-1 4-12-7-10-6z" fill="#DEBCB7"/>
<path transform="translate(888,827)" d="m0 0h1v64l-1-2h-2l1-3v-24l-1-2h2l-1-25z" fill="#EFD3B9"/>
<path transform="translate(164,488)" d="m0 0 2 1 6 14 5 2-4-14 1-3 4 10v8l-7-1-1 3-3 1-3-1v-2l5 1-3-11z" fill="#332525"/>
<path transform="translate(184,480)" d="m0 0 3 3 3 7v7l-5 8-1 3h-2l2-6 2-4-6-1-2-10 3 3 3 5 5 1-5-14z" fill="#3C2A29"/>
<path transform="translate(888,1167)" d="m0 0h2v2l-3 3 6 4 1 2-7-1-8 4v-3l5-3-4-4v-2l7-1z" fill="#94CFD1"/>
<path transform="translate(522,1014)" d="m0 0h10v7h-10z" fill="#E0E0E0"/>
<path transform="translate(796,703)" d="m0 0h3v26l-1 1h-16v-1l14-1 1-6z" fill="#B85752"/>
<path transform="translate(210,158)" d="m0 0h4v16l-2-3-1 18h-1z" fill="#E0DFDF"/>
<path transform="translate(485,1071)" d="m0 0h2l1 2v8l-4 4-3-1-1-9h3z" fill="#EEB496"/>
<path transform="translate(984,169)" d="m0 0h2l2 5 1 3-1 5-3 2v-3l-5-2-1-3h2l1-5 1 3v3z" fill="#CBA792"/>
<path transform="translate(923,1186)" d="m0 0 7 1 3 2-1 3h-12l-2-1v-2z" fill="#244746"/>
<path transform="translate(829,1152)" d="m0 0 7 1 4-1 1 2-2 1v5h-5l-7 3 1-3 3-2v-2l-4-3z" fill="#86BDD2"/>
<path transform="translate(522,1028)" d="m0 0h10v7h-10z" fill="#E0E0E0"/>
<path transform="translate(294,1035)" d="m0 0 4 3v2h2l1 8-1 5h-2l-1 2-1-2-1-13z" fill="#28222B"/>
<path transform="translate(442,925)" d="m0 0 2 1-4 10-13 1-2 2-3 9h-1v-12l2-1h16l2-8z" fill="#EECEB6"/>
<path transform="translate(916,414)" d="m0 0 4 2 6 7 4 7 2 10h-4l-1-9-5-9-5-5z" fill="#B2DEE8"/>
<path transform="translate(994,159)" d="m0 0 1 4 4-1-2 5-5 1-3 3h3l-1 3-4-2 1-4 1-2-1-3 5-3z" fill="#A77161"/>
<path transform="translate(851,1135)" d="m0 0h2l-1 4 5 3v3l-6-2-5 3-3-1 3-3 2-1-5-4 7-1z" fill="#8CC5CC"/>
<path transform="translate(564,1065)" d="m0 0h11v6h-11z" fill="#F6F5F6"/>
<path transform="translate(966,785)" d="m0 0 7 1 2 3-1 7-2 2h-6l-4-5 1-5zm-1 2-1 5 3 4h5l1-7-1-2z" fill="#313E43"/>
<path transform="translate(855,492)" d="m0 0 11 1h21v8h-2v-6l-5 1h-9l-14-2-1 3z" fill="#E3DAD4"/>
<path transform="translate(539,422)" d="m0 0h1l1 44 1 1h5l2-2 1 4h-11z" fill="#5775FC"/>
<path transform="translate(245,390)" d="m0 0 2 1-9 14-8 16-2-1 5-12 9-14z" fill="#352B2A"/>
<path transform="translate(1013,183)" d="m0 0 2 4 3 3v7h-8v-6h3z" fill="#CDA594"/>
<path transform="translate(960,148)" d="m0 0 1 3h-2l1 3h5l1-2h2v3h-2v2h12l-1 2-10 1h-6l-3-5v-5z" fill="#4A3937"/>
<path transform="translate(854,1154)" d="m0 0 9 3 5-2-2 5 4 4-8 1 1-3-9-5z" fill="#95D0D3"/>
<path transform="translate(851,1115)" d="m0 0 4 1 25 14 4 3-1 2-21-12-11-7z" fill="#485D5F"/>
<path transform="translate(803,1124)" d="m0 0 14 7 1 4-6-1-3 1v-4l-8-5z" fill="#92C6CF"/>
<path transform="translate(554,1114)" d="m0 0h8v7l-1 1h-6l-1-1z" fill="#F6B93C"/>
<path transform="translate(218,1021)" d="m0 0 18 8 1 8-2 7-3-1h2l-1-14-5-1-4-2h-6z" fill="#363D5B"/>
<path transform="translate(248,245)" d="m0 0h36v1l-31 1-3 1-1 16 2 1h-3z" fill="#E0E0E0"/>
<path transform="translate(941,179)" d="m0 0h6l1 3-6-1 1 2 5 2-1 4-1 1h-5l-1-4v-3z" fill="#4E75B6"/>
<path transform="translate(973,137)" d="m0 0h9l2 1-1 4-4 1h-9z" fill="#5671F4"/>
<path transform="translate(623,1078)" d="m0 0 3 1 5 7-1 2-4-4-1 1-1 2-5-1v6l-3 1v-6l2-3h5z" fill="#EDD3BB"/>
<path transform="translate(960,781)" d="m0 0h12l8 4 4 6v9h-1l-2-8-2-4-7-4-12-1z" fill="#30373A"/>
<path transform="translate(950,1184)" d="m0 0 5 2 9 5v1h-16l4-4-4-3z" fill="#82B9C0"/>
<path transform="translate(816,1140)" d="m0 0 3 1-2 3 3 2-1 3-6-3-7 2h-3l7-7h5z" fill="#8DC5CE"/>
<path transform="translate(295,617)" d="m0 0 1 3-1 5 9 7 3 1v2l5 2 2 2-5-1-11-7-6-5 1-6z" fill="#222928"/>
<path transform="translate(989,197)" d="m0 0h17l3 1v2h-21z" fill="#8C96C8"/>
<path transform="translate(204,1007)" d="m0 0h5l-5 4 1 3 8 4 3 1v11l-2-1 1-9-7-1-4-2-4-4 1-3z" fill="#393963"/>
<path transform="translate(974,164)" d="m0 0 3 1v9l1 7h2v2l4 1v2l-4 2-4-8-3-11-1-2 3-1z" fill="#353537"/>
<path transform="translate(877,1161)" d="m0 0 3 1-4 4 4 2-1 3-6 1-2-2 3-2-6-3 1-3 4 1z" fill="#8FC4D3"/>
<path transform="translate(177,1116)" d="m0 0 2 1-10 9-10 10 1-5 3-2 3-5 5-5 5-2z" fill="#383F5C"/>
<path transform="translate(895,1159)" d="m0 0 3 1v2l-3 2 6 3 1 4-7-3-5 1v-7z" fill="#8EC6CD"/>
<path transform="translate(823,1131)" d="m0 0h2v2l-2 2 6 4 1 2-7-1-5 1 2-4-2-1v-3z" fill="#95D1D4"/>
<path transform="translate(884,544)" d="m0 0 3 1-10 7-6 5-6 7-1-3 5-6 10-8z" fill="#E3DBD5"/>
<path transform="translate(958,1179)" d="m0 0 5 1 19 11-4 1-18-10z" fill="#92C1CD"/>
<path transform="translate(857,1148)" d="m0 0 3 1-5 5-1 3 3 1-7 3-2 2-4-3 9-3v-2l-4-2z" fill="#84BAD1"/>
<path transform="translate(837,1144)" d="m0 0 7 1v3l5 2 2 1v2l-7-1-4 1 1-4-4-2z" fill="#92CDD2"/>
<path transform="translate(911,577)" d="m0 0 5 2v2h-7l-7 2-2 3-6 3-3 4v-4l10-8z" fill="#E3DAD2"/>
<path transform="translate(938,196)" d="m0 0h3l1 3 34 1v1l-34 1-2 2v-4l-3 1z" fill="#334342"/>
<path transform="translate(1013,179)" d="m0 0h2l3 9 1 2-4-2-1-1-2 3h-5l1-5h2l1-3h2z" fill="#B35752"/>
<path transform="translate(910,1173)" d="m0 0h6v4h3v2h2v2l-7-1-4 3-2-1 1-3 2-1z" fill="#88C1CB"/>
<path transform="translate(288,1075)" d="m0 0 1 4 1 1v10h-1l-1-6-8 5-1-2 2-5 2 2 2-5 2-1z" fill="#934C49"/>
<path transform="translate(526,1041)" d="m0 0 6 1v3h-4l-1 5-2 1-2-1v-8z" fill="#E0DFDE"/>
<path transform="translate(961,179)" d="m0 0h7l1 3-6-1v6l5-1v3l-1 1h-5l-2-6z" fill="#446DA3"/>
<path transform="translate(962,147)" d="m0 0h6v4h-2l-1 4h-5l-1-4h2z" fill="#E4BFA5"/>
<path transform="translate(891,991)" d="m0 0 15 8 1 3-5-1-12-7z" fill="#E1CBC5"/>
<path transform="translate(244,900)" d="m0 0 2 1 2 10v4l-4-1-2-13z" fill="#33795D"/>
<path transform="translate(897,826)" d="m0 0h44l3 3-3 1-1-2-43-1z" fill="#C9E1EC"/>
<path transform="translate(669,554)" d="m0 0h6l1 1v5l-2 2h-5z" fill="#4F3992"/>
<path transform="translate(982,164)" d="m0 0 2 1v2h2l1-3 1 5-1 3 4 1v3l-4-2-1-5h-2l1 5-2 4-1-4 1-3h-2z" fill="#E1D9D7"/>
<path transform="translate(844,1127)" d="m0 0m-2 1h2v2l-3 2 4 3v2h-5l-6 2 3-4-1-4z" fill="#94D0D3"/>
<path transform="translate(967,800)" d="m0 0h17l-1 3h-18l2-1z" fill="#353537"/>
<path transform="translate(910,1151)" d="m0 0 4 1 18 10v2l-6-2-16-9z" fill="#9AC8C8"/>
<path transform="translate(838,781)" d="m0 0m-2 1h2v2l-5 3h-2l-2 6-1 7-3-1 2-11 6-5z" fill="#313B3E"/>
<path transform="translate(426,176)" d="m0 0h6l2 3v3l-2 1h-6z" fill="#E2CDC7"/>
<path transform="translate(643,158)" d="m0 0h2l1 5 6 1-1 2-6-1-1 24h-1z" fill="#E0E0E0"/>
<path transform="translate(860,1184)" d="m0 0 4 1 11 6v1h-7l-9-5z" fill="#E2C1B2"/>
<path transform="translate(177,537)" d="m0 0 8 1v20h-1l-1-16-7-1z" fill="#211E1D"/>
<path transform="translate(977,167)" d="m0 0 5 4-1 5h-2l3 4v3h-2v-2h-2l-2-7z" fill="#B45F57"/>
<path transform="translate(474,163)" d="m0 0h5l2 3-1 4-1 1h-5z" fill="#E1D3CD"/>
<path transform="translate(877,1142)" d="m0 0 5 2 4 2v3l-8-1-4 3-2-1 1-3 4-1z" fill="#89C2CE"/>
<path transform="translate(193,540)" d="m0 0h2l6 12 2-8h1v9l-2 3h-2l-3-5-2-5z" fill="#242F2E"/>
<path transform="translate(854,490)" d="m0 0h1l-1 16-2 11-2-3 1-12 1-1z" fill="#B95853"/>
<path transform="translate(307,595)" d="m0 0 5 1-4 2-6 11-5 8-1-2 10-19z" fill="#242321"/>
<path transform="translate(616,163)" d="m0 0 6 1 1 4-2 3h-5z" fill="#E2D4CE"/>
<path transform="translate(939,1184)" d="m0 0v3l-1 2 4 3h-10v-3l-2-1v-2l7-1z" fill="#95D0D1"/>
<path transform="translate(508,1097)" d="m0 0 4 1-3 3-7 14h5v1h-7l3-9z" fill="#E2DBD4"/>
<path transform="translate(564,875)" d="m0 0h4l1 6-2 2-4-1-1-1v-5z" fill="#7E5E57"/>
<path transform="translate(216 1e3)" d="m0 0h1v29h2l-1 3h-3l-1-4h2z" fill="#D4AB85"/>
<path transform="translate(904,174)" d="m0 0h2l1 8-5 10-4 4-3-1 5-5 3-4 1-3z" fill="#ECC3AC"/>
<path transform="translate(524,158)" d="m0 0h6v31h-1l-1-8v-3-17h-2v-2z" fill="#E0DFDF"/>
<path transform="translate(258,1085)" d="m0 0 2 3v4h2v-7h1v7h2l1-5 1 4 4 2-7 1-8-2 2-2z" fill="#A7524E"/>
<path transform="translate(195,468)" d="m0 0h3v2l-8 7-4 3-2-1 9-10z" fill="#E8AB9A"/>
<path transform="translate(886,1147)" d="m0 0 5 2 9 5-2 3-5-3-5-1v-3h-2z" fill="#99CFD1"/>
<path transform="translate(261,450)" d="m0 0 3 1v6l-1 2h-4l-1-6z" fill="#70504B"/>
<path transform="translate(839,1158)" d="m0 0 5 2 11 6-3 2-12-7z" fill="#91CAD9"/>
<path transform="translate(619,1086)" d="m0 0 5 2-1 7-6 1z" fill="#EAAC94"/>
<path transform="translate(524,1053)" d="m0 0 6 2 1 5-4 3v-2h-2z" fill="#D69684"/>
<path transform="translate(508,173)" d="m0 0 6 2 5 4-2 4h-5l1-2-2-5z" fill="#E2C8C2"/>
<path transform="translate(992,172)" d="m0 0 4 2v3h-2l-1 4h-5v-5h3z" fill="#EBC9AF"/>
<path transform="translate(989,194)" d="m0 0 5 2v1l-5 1-1 2 4 1h-14l-2-2 2-1 7 2 2-4z" fill="#404248"/>
<path transform="translate(972,136)" d="m0 0h10l-4 2-4 1-2 2-5 4h-3v-4l5-1z" fill="#3A3568"/>
<path transform="translate(834,1170)" d="m0 0 7 1 5 5-1 2-5-2-5-3z" fill="#E5A796"/>
<path transform="translate(569,1014)" d="m0 0 2 1-2 3 1 6h-2l-1-4-12 1 1-3h9l2 1 1-4z" fill="#E4DCCF"/>
<path transform="translate(938,1019)" d="m0 0 6 2 6 4v2l-6-1-7-5z" fill="#E1CBC4"/>
<path transform="translate(323,1173)" d="m0 0h1v5l-6 2-3 12h-1v-9l5-5 3-2z" fill="#403535"/>
<path transform="translate(333,1015)" d="m0 0 7 2 1 5-3 2h-6l4-3h2v-3l-5-2z" fill="#383E5D"/>
<path transform="translate(643,1086)" d="m0 0 1 4v3l-10 1-3 1-1-5 2-2 2 3 8 1v-5z" fill="#EAD5BB"/>
<path transform="translate(304,1052)" d="m0 0 2 3v7l-2-4-1-1-4 5v-3l-2-1h2v-5l2 2z" fill="#A45751"/>
<path transform="translate(907 1e3)" d="m0 0 6 2 5 4-3 2-10-6z" fill="#E1C5BF"/>
<path transform="translate(444,889)" d="m0 0 6 2v17h-1l-2-16-3-1z" fill="#EAB5A2"/>
<path transform="translate(620,565)" d="m0 0 1 4-1 13-2-1-1-14h2z" fill="#534BB3"/>
<path transform="translate(446,559)" d="m0 0 2 1 2 8h-7z" fill="#4F45A4"/>
<path transform="translate(560,515)" d="m0 0 2 2 2 7h-7z" fill="#5047AA"/>
<path transform="translate(983,193)" d="m0 0 4 1-1 4-1 2h-5l1-5z" fill="#C1907C"/>
<path transform="translate(562,559)" d="m0 0h2l2 9h-6z" fill="#4F49AB"/>
<path transform="translate(215,446)" d="m0 0 5 1 1 4-3 2-5-3z" fill="#EBBFA9"/>
<path transform="translate(884,1188)" d="m0 0 5 1 4 3h-14z" fill="#204140"/>
<path transform="translate(326,1142)" d="m0 0h1l1 14-2 10h-1v-11z" fill="#C3866F"/>
<path transform="translate(229,1049)" d="m0 0h2l1 5 2-4v7l-2 3-3-5h-2z" fill="#9B554C"/>
<path transform="translate(845,965)" d="m0 0 5 2 6 4-4 1-9-5z" fill="#E0C7C1"/>
<path transform="translate(627,515)" d="m0 0 2 1 2 5v3h-6z" fill="#5046A9"/>
<path transform="translate(426,163)" d="m0 0 5 1 1 4-5 2-1-1z" fill="#E0CBC9"/>
<path transform="translate(977,1042)" d="m0 0 5 1 5 3-1 4-10-6z" fill="#E3C6BE"/>
<path transform="translate(956,816)" d="m0 0 2 1-1 3-3 2v7l4 4v2l-4-2-2-3v-9z" fill="#C37659"/>
<path transform="translate(952,788)" d="m0 0h5v4l-1 2-4-1-2-2z" fill="#63766D"/>
<path transform="translate(931,1173)" d="m0 0 5 2v3l-8 3-1-3 4-1v-2l-2-1z" fill="#88BFD6"/>
<path transform="translate(897,873)" d="m0 0h13v2l-13 1z" fill="#343537"/>
<path transform="translate(772,1182)" d="m0 0 10 5 7 4-3 1-13-7z" fill="#7B4852"/>
<path transform="translate(909,1161)" d="m0 0 5 1 3 2v2h-6l-4 1v-2l2-2z" fill="#97D3D6"/>
<path transform="translate(934,186)" d="m0 0 3 2 1 8-1-3h-3l-1 9h-1v-9l3-1z" fill="#404C42"/>
<path transform="translate(972,170)" d="m0 0 3 2 1 8-5-2v-4h2z" fill="#7973A9"/>
<path transform="translate(948,1172)" d="m0 0 12 6-3 2-11-6z" fill="#88B7CB"/>
<path transform="translate(312 1e3)" d="m0 0 6 1 3 2v2h3l4 5-5-2-11-7z" fill="#383F5C"/>
<path transform="translate(254,898)" d="m0 0 3 1-3 7-3 1 1-7z" fill="#519986"/>
<path transform="translate(890,637)" d="m0 0 2 3 1 12-3-1z" fill="#251C1B"/>
<path transform="translate(749,574)" d="m0 0 1 2-1 11-2-4-2 1 1-7z" fill="#292530"/>
<path transform="translate(207,453)" d="m0 0 1 2-5 9-3 1 1-4z" fill="#403E79"/>
<path transform="translate(983,244)" d="m0 0h11v1l-10 1-5 5-2 1 1-5z" fill="#E0DADA"/>
<path transform="translate(962,142)" d="m0 0 3 1-1 2 4-2h6v1l-12 4-2-1z" fill="#323537"/>
<path transform="translate(204,1123)" d="m0 0h11l4 2-16 1z" fill="#3E3333"/>
<path transform="translate(554,1113)" d="m0 0h9l1 1v8l-4 1 2-9h-8z" fill="#EDD2AD"/>
<path transform="translate(301,1047)" d="m0 0 5 1 3 4 1 7-2 1-2-9-4-1-2 1z" fill="#CE766E"/>
<path transform="translate(277,1037)" d="m0 0 7 1 5 2v2l-12-2z" fill="#26202A"/>
<path transform="translate(232,994)" d="m0 0 3 1-14 7h-5l4-3 9-3z" fill="#374257"/>
<path transform="translate(976,785)" d="m0 0h4l4 6v9h-1l-2-8-2-4z" fill="#314044"/>
<path transform="translate(784,646)" d="m0 0 3 4-1 2h-9l5-4z" fill="#5775FC"/>
<path transform="translate(349,597)" d="m0 0h5v2l-13 3-3-1 7-3z" fill="#242B29"/>
<path transform="translate(822,399)" d="m0 0 2 1-4 5-5 3-3 3 2-5z" fill="#383551"/>
<path transform="translate(126,163)" d="m0 0 6 1-3 2-1 3 2 1-4-1-2-1v-4z" fill="#E0CBC9"/>
<path transform="translate(857,1143)" d="m0 0h4v3l5 1v2h-7v-2l-2-1z" fill="#97D3D6"/>
<path transform="translate(508,1125)" d="m0 0h6l1 5-5-1-3-3z" fill="#E8CCBB"/>
<path transform="translate(635,1093)" d="m0 0h7l-2 7-4-4z" fill="#CF5B6D"/>
<path transform="translate(963,1032)" d="m0 0 6 2 10 6v2l-4-2-11-6z" fill="#604375"/>
<path transform="translate(284 1e3)" d="m0 0 5 2 6 4 2 5-7-6-6-3z" fill="#223C3E"/>
<path transform="translate(204,1007)" d="m0 0h5l-5 4 1 3 3 3-5-2-3-2 1-3z" fill="#364653"/>
<path transform="translate(913,486)" d="m0 0h4l-1 6-2 9h-1v-7l2-6h-2z" fill="#B95853"/>
<path transform="translate(874,189)" d="m0 0 9 5 3 2h-8l-4-4z" fill="#EDC3AB"/>
<path transform="translate(981,152)" d="m0 0h2v7l-1 1 2 2h-4l-2-4h2v-5z" fill="#C2886A"/>
<path transform="translate(919,1186)" d="m0 0 3 1-4 2v2l2 1h-5l-2-4 4-1z" fill="#99D4D2"/>
<path transform="translate(778,1187)" d="m0 0 8 4v1h-8l-2-1v-3z" fill="#E3C9C0"/>
<path transform="translate(523,1105)" d="m0 0h2l-1 5-3 5-3-1 1-3h2z" fill="#E3D9D1"/>
<path transform="translate(247,1082)" d="m0 0 2 2 2-2 2 5v3l-4-1-2-4z" fill="#AC5950"/>
<path transform="translate(623,1078)" d="m0 0 3 1 5 7-1 2-4-4v-2h-2l-1 2z" fill="#EAD4C1"/>
<path transform="translate(243,1030)" d="m0 0 1 2-3 9-3-4v-3z" fill="#333435"/>
<path transform="translate(709,943)" d="m0 0 2 3 1 5-2 4-2-1-1-6z" fill="#EFD3B9"/>
<path transform="translate(994,177)" d="m0 0 3 1-1 4h-2l-3 3v-2l-4-1 4-2h2z" fill="#C28068"/>
<path transform="translate(985,152)" d="m0 0h2v11l-3-3v-7z" fill="#E0E0E0"/>
<path transform="translate(770,1184)" d="m0 0 4 1 4 3h-2v2l-5-2z" fill="#E3D4CC"/>
<path transform="translate(863,1125)" d="m0 0 6 1 7 4-2 2-11-6z" fill="#8BC2CF"/>
<path transform="translate(853,1118)" d="m0 0 4 1 9 5-4 1-9-5z" fill="#99C9CC"/>
<path transform="translate(987,1047)" d="m0 0 5 2 4 4-2 1-7-4z" fill="#E1D4D1"/>
<path transform="translate(195,499)" d="m0 0h1v7l-2 8h-1v-11z" fill="#E9B8A9"/>
<path transform="translate(855,492)" d="m0 0 11 1 3 2h-7l-5-1-1 3z" fill="#E1DAD6"/>
<path transform="translate(994,187)" d="m0 0 5 2-1 3-11 1 1-2h7v-2l-2-1z" fill="#C1736A"/>
<path transform="translate(1013,179)" d="m0 0h2l3 9 1 2-4-2-1-5-3-1h2z" fill="#9C6E5E"/>
<path transform="translate(951,179)" d="m0 0h6v2h-5v7l-2-1v-7z" fill="#40668E"/>
<path transform="translate(961,148)" d="m0 0 3 3 2 3-1 1h-5l-1-4h2z" fill="#BB836E"/>
</svg>